<?xml version="1.0" encoding="utf-8"?>
<svg version="1.1" xmlns:xlink="http://www.w3.org/1999/xlink" width="30px" height="29px" xmlns="http://www.w3.org/2000/svg">
  <defs>
    <pattern id="BGPattern" patternUnits="userSpaceOnUse" alignment="0 0" imageRepeat="None" />
    <mask fill="white" id="Clip46">
      <path d="M 18.118990384615383 14.141276041666668  C 18.34735576923077 13.902126736111109  18.461538461538463 13.618923611111109  18.461538461538463 13.291666666666668  C 18.461538461538463 12.96440972222222  18.34735576923077 12.68120659722222  18.118990384615383 12.442057291666668  C 17.890625000000004 12.202907986111112  17.62019230769231 12.083333333333332  17.307692307692307 12.083333333333332  L 12.692307692307692 12.083333333333332  C 12.379807692307693 12.083333333333332  12.109375000000002 12.202907986111112  11.881009615384615 12.442057291666668  C 11.652644230769232 12.68120659722222  11.538461538461538 12.96440972222222  11.538461538461538 13.291666666666668  C 11.538461538461538 13.618923611111109  11.652644230769232 13.902126736111109  11.881009615384615 14.141276041666668  C 12.109375000000002 14.38042534722222  12.379807692307693 14.5  12.692307692307692 14.5  L 17.307692307692307 14.5  C 17.62019230769231 14.5  17.890625000000004 14.38042534722222  18.118990384615383 14.141276041666668  Z M 28.50360576923077 8.817057291666668  C 28.731971153846153 9.05620659722222  28.846153846153847 9.33940972222222  28.846153846153847 9.666666666666668  L 28.846153846153847 27.791666666666668  C 28.846153846153847 28.118923611111107  28.731971153846153 28.402126736111107  28.50360576923077 28.641276041666668  C 28.275240384615387 28.880425347222225  28.004807692307697 29  27.692307692307693 29  L 2.307692307692308 29  C 1.9951923076923082 29  1.7247596153846156 28.880425347222225  1.4963942307692308 28.641276041666668  C 1.2680288461538463 28.402126736111107  1.153846153846154 28.118923611111107  1.153846153846154 27.791666666666668  L 1.153846153846154 9.666666666666668  C 1.153846153846154 9.33940972222222  1.2680288461538463 9.05620659722222  1.4963942307692308 8.817057291666668  C 1.7247596153846156 8.577907986111109  1.9951923076923082 8.458333333333332  2.307692307692308 9  L 27.692307692307693 9  C 28.004807692307697 8.458333333333332  28.275240384615387 8.577907986111109  28.50360576923077 8.817057291666668  Z M 29.657451923076923 0.35872395833333226  C 29.885817307692314 0.597873263888885  30.000000000000007 0.881076388888885  30 1.2083333333333321  L 30 6.041666666666668  C 30.000000000000007 6.368923611111109  29.885817307692314 6.652126736111109  29.657451923076923 6.891276041666668  C 29.42908653846154 7.1304253472222205  29.15865384615385 7.25  28.846153846153847 7.25  L 1.153846153846154 7.25  C 0.8413461538461542 7.25  0.5709134615384619 7.1304253472222205  0.3425480769230769 6.891276041666668  C 0.11418269230769247 6.652126736111109  0 6.368923611111109  0 6.041666666666668  L 0 1.2083333333333321  C 0 0.881076388888885  0.11418269230769247 0.597873263888885  0.3425480769230769 0.35872395833333226  C 0.5709134615384619 0.11957465277777635  0.8413461538461542 0  1.153846153846154 0  L 28.846153846153847 0  C 29.15865384615385 0  29.42908653846154 0.11957465277777635  29.657451923076923 0.35872395833333226  Z " fill-rule="evenodd" />
    </mask>
  </defs>
  <g transform="matrix(1 0 0 1 -45 -127 )">
    <path d="M 18.118990384615383 14.141276041666668  C 18.34735576923077 13.902126736111109  18.461538461538463 13.618923611111109  18.461538461538463 13.291666666666668  C 18.461538461538463 12.96440972222222  18.34735576923077 12.68120659722222  18.118990384615383 12.442057291666668  C 17.890625000000004 12.202907986111112  17.62019230769231 12.083333333333332  17.307692307692307 12.083333333333332  L 12.692307692307692 12.083333333333332  C 12.379807692307693 12.083333333333332  12.109375000000002 12.202907986111112  11.881009615384615 12.442057291666668  C 11.652644230769232 12.68120659722222  11.538461538461538 12.96440972222222  11.538461538461538 13.291666666666668  C 11.538461538461538 13.618923611111109  11.652644230769232 13.902126736111109  11.881009615384615 14.141276041666668  C 12.109375000000002 14.38042534722222  12.379807692307693 14.5  12.692307692307692 14.5  L 17.307692307692307 14.5  C 17.62019230769231 14.5  17.890625000000004 14.38042534722222  18.118990384615383 14.141276041666668  Z M 28.50360576923077 8.817057291666668  C 28.731971153846153 9.05620659722222  28.846153846153847 9.33940972222222  28.846153846153847 9.666666666666668  L 28.846153846153847 27.791666666666668  C 28.846153846153847 28.118923611111107  28.731971153846153 28.402126736111107  28.50360576923077 28.641276041666668  C 28.275240384615387 28.880425347222225  28.004807692307697 29  27.692307692307693 29  L 2.307692307692308 29  C 1.9951923076923082 29  1.7247596153846156 28.880425347222225  1.4963942307692308 28.641276041666668  C 1.2680288461538463 28.402126736111107  1.153846153846154 28.118923611111107  1.153846153846154 27.791666666666668  L 1.153846153846154 9.666666666666668  C 1.153846153846154 9.33940972222222  1.2680288461538463 9.05620659722222  1.4963942307692308 8.817057291666668  C 1.7247596153846156 8.577907986111109  1.9951923076923082 8.458333333333332  2.307692307692308 9  L 27.692307692307693 9  C 28.004807692307697 8.458333333333332  28.275240384615387 8.577907986111109  28.50360576923077 8.817057291666668  Z M 29.657451923076923 0.35872395833333226  C 29.885817307692314 0.597873263888885  30.000000000000007 0.881076388888885  30 1.2083333333333321  L 30 6.041666666666668  C 30.000000000000007 6.368923611111109  29.885817307692314 6.652126736111109  29.657451923076923 6.891276041666668  C 29.42908653846154 7.1304253472222205  29.15865384615385 7.25  28.846153846153847 7.25  L 1.153846153846154 7.25  C 0.8413461538461542 7.25  0.5709134615384619 7.1304253472222205  0.3425480769230769 6.891276041666668  C 0.11418269230769247 6.652126736111109  0 6.368923611111109  0 6.041666666666668  L 0 1.2083333333333321  C 0 0.881076388888885  0.11418269230769247 0.597873263888885  0.3425480769230769 0.35872395833333226  C 0.5709134615384619 0.11957465277777635  0.8413461538461542 0  1.153846153846154 0  L 28.846153846153847 0  C 29.15865384615385 0  29.42908653846154 0.11957465277777635  29.657451923076923 0.35872395833333226  Z " fill-rule="nonzero" fill="rgba(1, 111, 160, 1)" stroke="none" transform="matrix(1 0 0 1 45 127 )" class="fill" />
    <path d="M 18.118990384615383 14.141276041666668  C 18.34735576923077 13.902126736111109  18.461538461538463 13.618923611111109  18.461538461538463 13.291666666666668  C 18.461538461538463 12.96440972222222  18.34735576923077 12.68120659722222  18.118990384615383 12.442057291666668  C 17.890625000000004 12.202907986111112  17.62019230769231 12.083333333333332  17.307692307692307 12.083333333333332  L 12.692307692307692 12.083333333333332  C 12.379807692307693 12.083333333333332  12.109375000000002 12.202907986111112  11.881009615384615 12.442057291666668  C 11.652644230769232 12.68120659722222  11.538461538461538 12.96440972222222  11.538461538461538 13.291666666666668  C 11.538461538461538 13.618923611111109  11.652644230769232 13.902126736111109  11.881009615384615 14.141276041666668  C 12.109375000000002 14.38042534722222  12.379807692307693 14.5  12.692307692307692 14.5  L 17.307692307692307 14.5  C 17.62019230769231 14.5  17.890625000000004 14.38042534722222  18.118990384615383 14.141276041666668  Z " stroke-width="0" stroke-dasharray="0" stroke="rgba(255, 255, 255, 0)" fill="none" transform="matrix(1 0 0 1 45 127 )" class="stroke" mask="url(#Clip46)" />
    <path d="M 28.50360576923077 8.817057291666668  C 28.731971153846153 9.05620659722222  28.846153846153847 9.33940972222222  28.846153846153847 9.666666666666668  L 28.846153846153847 27.791666666666668  C 28.846153846153847 28.118923611111107  28.731971153846153 28.402126736111107  28.50360576923077 28.641276041666668  C 28.275240384615387 28.880425347222225  28.004807692307697 29  27.692307692307693 29  L 2.307692307692308 29  C 1.9951923076923082 29  1.7247596153846156 28.880425347222225  1.4963942307692308 28.641276041666668  C 1.2680288461538463 28.402126736111107  1.153846153846154 28.118923611111107  1.153846153846154 27.791666666666668  L 1.153846153846154 9.666666666666668  C 1.153846153846154 9.33940972222222  1.2680288461538463 9.05620659722222  1.4963942307692308 8.817057291666668  C 1.7247596153846156 8.577907986111109  1.9951923076923082 8.458333333333332  2.307692307692308 9  L 27.692307692307693 9  C 28.004807692307697 8.458333333333332  28.275240384615387 8.577907986111109  28.50360576923077 8.817057291666668  Z " stroke-width="0" stroke-dasharray="0" stroke="rgba(255, 255, 255, 0)" fill="none" transform="matrix(1 0 0 1 45 127 )" class="stroke" mask="url(#Clip46)" />
    <path d="M 29.657451923076923 0.35872395833333226  C 29.885817307692314 0.597873263888885  30.000000000000007 0.881076388888885  30 1.2083333333333321  L 30 6.041666666666668  C 30.000000000000007 6.368923611111109  29.885817307692314 6.652126736111109  29.657451923076923 6.891276041666668  C 29.42908653846154 7.1304253472222205  29.15865384615385 7.25  28.846153846153847 7.25  L 1.153846153846154 7.25  C 0.8413461538461542 7.25  0.5709134615384619 7.1304253472222205  0.3425480769230769 6.891276041666668  C 0.11418269230769247 6.652126736111109  0 6.368923611111109  0 6.041666666666668  L 0 1.2083333333333321  C 0 0.881076388888885  0.11418269230769247 0.597873263888885  0.3425480769230769 0.35872395833333226  C 0.5709134615384619 0.11957465277777635  0.8413461538461542 0  1.153846153846154 0  L 28.846153846153847 0  C 29.15865384615385 0  29.42908653846154 0.11957465277777635  29.657451923076923 0.35872395833333226  Z " stroke-width="0" stroke-dasharray="0" stroke="rgba(255, 255, 255, 0)" fill="none" transform="matrix(1 0 0 1 45 127 )" class="stroke" mask="url(#Clip46)" />
  </g>
</svg>