<?xml version="1.0" encoding="utf-8"?>
<svg version="1.1" xmlns:xlink="http://www.w3.org/1999/xlink" width="30px" height="30px" xmlns="http://www.w3.org/2000/svg">
  <defs>
    <pattern id="BGPattern" patternUnits="userSpaceOnUse" alignment="0 0" imageRepeat="None" />
    <mask fill="white" id="Clip460">
      <path d="M 18.53515625 18.535156250000004  C 19.51171875 17.558593749999996  20 16.380208333333332  20 15  C 20 13.619791666666664  19.51171875 12.441406249999998  18.53515625 11.464843750000002  C 17.55859375 10.48828125  16.380208333333336 10.000000000000002  15 10.000000000000002  C 13.619791666666668 10.000000000000002  12.44140625 10.48828125  11.46484375 11.464843750000002  C 10.48828125 12.441406249999998  10 13.619791666666664  10 15  C 10 16.380208333333332  10.48828125 17.558593749999996  11.46484375 18.535156250000004  C 12.44140625 19.51171875  13.619791666666668 20.000000000000004  15 20.000000000000004  C 16.380208333333336 20.000000000000004  17.55859375 19.51171875  18.53515625 18.535156250000004  Z M 29.84375 12.412109374999998  C 29.947916666666664 12.548828125000002  30 12.701822916666666  30 12.871093750000002  L 30 17.207031249999996  C 30 17.363281250000004  29.947916666666664 17.513020833333336  29.84375 17.656250000000004  C 29.739583333333336 17.799479166666664  29.609375 17.88411458333333  29.453125 17.910156249999996  L 25.83984375 18.45703125  C 25.59244791666667 19.16015625  25.33854166666667 19.752604166666664  25.078125 20.234375000000004  C 25.53385416666667 20.885416666666668  26.23046875 21.783854166666664  27.16796875 22.9296875  C 27.298177083333336 23.0859375  27.36328125 23.248697916666668  27.36328125 23.41796875  C 27.36328125 23.587239583333336  27.3046875 23.736979166666664  27.1875 23.8671875  C 26.8359375 24.348958333333336  26.19140625 25.052083333333336  25.25390625 25.9765625  C 24.31640625 26.901041666666664  23.704427083333336 27.36328125  23.41796875 27.36328125  C 23.26171875 27.36328125  23.092447916666668 27.3046875  22.91015625 27.1875  L 20.21484375 25.078125  C 19.641927083333332 25.377604166666664  19.049479166666668 25.625  18.4375 25.8203125  C 18.229166666666668 27.591145833333336  18.040364583333336 28.802083333333336  17.87109375 29.453125  C 17.779947916666668 29.817708333333336  17.545572916666668 30  17.16796875 30  L 12.83203125 30  C 12.649739583333336 30  12.490234375 29.944661458333336  12.353515625 29.833984375  C 12.216796875 29.723307291666668  12.141927083333336 29.583333333333336  12.12890625 29.4140625  L 11.58203125 25.8203125  C 10.944010416666668 25.611979166666664  10.358072916666668 25.37109375  9.82421875 25.09765625  L 7.0703125 27.1875  C 6.940104166666668 27.3046875  6.77734375 27.36328125  6.58203125 27.36328125  C 6.399739583333334 27.36328125  6.236979166666668 27.291666666666668  6.09375 27.1484375  C 4.453125 25.6640625  3.37890625 24.5703125  2.87109375 23.8671875  C 2.779947916666667 23.736979166666664  2.734375 23.587239583333336  2.734375 23.41796875  C 2.734375 23.26171875  2.786458333333334 23.111979166666664  2.890625 22.96875  C 3.0859375 22.6953125  3.41796875 22.262369791666668  3.8867187499999996 21.669921875000004  C 4.35546875 21.07747395833333  4.70703125 20.61848958333333  4.94140625 20.292968750000004  C 4.58984375 19.64192708333333  4.322916666666667 18.99739583333333  4.140625 18.359375000000004  L 0.56640625 17.832031250000004  C 0.39713541666666674 17.805989583333336  0.2604166666666667 17.724609375  0.15625 17.587890624999996  C 0.05208333333333333 17.451171875000004  0 17.29817708333333  0 17.128906250000004  L 0 12.792968749999998  C 0 12.636718750000002  0.05208333333333333 12.486979166666664  0.15625 12.343750000000002  C 0.2604166666666667 12.200520833333334  0.38411458333333337 12.115885416666666  0.52734375 12.089843749999998  L 4.16015625 11.54296875  C 4.342447916666667 10.944010416666666  4.596354166666667 10.345052083333332  4.921875 9.746093749999998  C 4.401041666666667 9.003906250000002  3.704427083333334 8.105468749999998  2.83203125 7.050781249999999  C 2.701822916666667 6.894531250000001  2.63671875 6.73828125  2.63671875 6.582031249999999  C 2.63671875 6.451822916666665  2.6953125 6.3020833333333295  2.8125 6.132812500000001  C 3.1510416666666665 5.664062500000001  3.792317708333334 4.96419270833333  4.736328125 4.033203124999999  C 5.680338541666668 3.1022135416666643  6.295572916666668 2.63671875  6.58203125 2.63671875  C 6.751302083333334 2.63671875  6.920572916666668 2.701822916666665  7.08984375 2.832031249999999  L 9.78515625 4.921875  C 10.358072916666668 4.622395833333331  10.950520833333336 4.375000000000001  11.5625 4.179687499999999  C 11.770833333333336 2.408854166666665  11.959635416666666 1.197916666666664  12.12890625 0.5468749999999989  C 12.220052083333334 0.1822916666666652  12.454427083333334 0  12.83203125 0  L 17.16796875 0  C 17.350260416666668 0  17.509765625 0.055338541666664076  17.646484375 0.1660156249999989  C 17.783203125 0.2766927083333304  17.858072916666668 0.4166666666666652  17.87109375 0.5859375  L 18.41796875 4.179687499999999  C 19.055989583333332 4.388020833333331  19.641927083333332 4.62890625  20.17578125 4.902343750000001  L 22.94921875 2.8125  C 23.06640625 2.6953125  23.22265625 2.63671875  23.41796875 2.63671875  C 23.587239583333336 2.63671875  23.75 2.701822916666665  23.90625 2.832031249999999  C 25.5859375 4.381510416666666  26.66015625 5.488281250000001  27.12890625 6.15234375  C 27.220052083333336 6.256510416666666  27.265625 6.39973958333333  27.265625 6.582031249999999  C 27.265625 6.73828125  27.21354166666667 6.8880208333333295  27.109375 7.03125  C 26.9140625 7.304687500000001  26.58203125 7.7376302083333295  26.11328125 8.330078125000002  C 25.64453125 8.922526041666666  25.29296875 9.381510416666664  25.05859375 9.707031250000002  C 25.39713541666667 10.358072916666666  25.6640625 10.996093749999998  25.859375 11.621093749999998  L 29.43359375 12.167968750000002  C 29.602864583333332 12.194010416666664  29.739583333333336 12.275390624999996  29.84375 12.412109374999998  Z " fill-rule="evenodd" />
    </mask>
  </defs>
  <g transform="matrix(1 0 0 1 -45 -188 )">
    <path d="M 18.53515625 18.535156250000004  C 19.51171875 17.558593749999996  20 16.380208333333332  20 15  C 20 13.619791666666664  19.51171875 12.441406249999998  18.53515625 11.464843750000002  C 17.55859375 10.48828125  16.380208333333336 10.000000000000002  15 10.000000000000002  C 13.619791666666668 10.000000000000002  12.44140625 10.48828125  11.46484375 11.464843750000002  C 10.48828125 12.441406249999998  10 13.619791666666664  10 15  C 10 16.380208333333332  10.48828125 17.558593749999996  11.46484375 18.535156250000004  C 12.44140625 19.51171875  13.619791666666668 20.000000000000004  15 20.000000000000004  C 16.380208333333336 20.000000000000004  17.55859375 19.51171875  18.53515625 18.535156250000004  Z M 29.84375 12.412109374999998  C 29.947916666666664 12.548828125000002  30 12.701822916666666  30 12.871093750000002  L 30 17.207031249999996  C 30 17.363281250000004  29.947916666666664 17.513020833333336  29.84375 17.656250000000004  C 29.739583333333336 17.799479166666664  29.609375 17.88411458333333  29.453125 17.910156249999996  L 25.83984375 18.45703125  C 25.59244791666667 19.16015625  25.33854166666667 19.752604166666664  25.078125 20.234375000000004  C 25.53385416666667 20.885416666666668  26.23046875 21.783854166666664  27.16796875 22.9296875  C 27.298177083333336 23.0859375  27.36328125 23.248697916666668  27.36328125 23.41796875  C 27.36328125 23.587239583333336  27.3046875 23.736979166666664  27.1875 23.8671875  C 26.8359375 24.348958333333336  26.19140625 25.052083333333336  25.25390625 25.9765625  C 24.31640625 26.901041666666664  23.704427083333336 27.36328125  23.41796875 27.36328125  C 23.26171875 27.36328125  23.092447916666668 27.3046875  22.91015625 27.1875  L 20.21484375 25.078125  C 19.641927083333332 25.377604166666664  19.049479166666668 25.625  18.4375 25.8203125  C 18.229166666666668 27.591145833333336  18.040364583333336 28.802083333333336  17.87109375 29.453125  C 17.779947916666668 29.817708333333336  17.545572916666668 30  17.16796875 30  L 12.83203125 30  C 12.649739583333336 30  12.490234375 29.944661458333336  12.353515625 29.833984375  C 12.216796875 29.723307291666668  12.141927083333336 29.583333333333336  12.12890625 29.4140625  L 11.58203125 25.8203125  C 10.944010416666668 25.611979166666664  10.358072916666668 25.37109375  9.82421875 25.09765625  L 7.0703125 27.1875  C 6.940104166666668 27.3046875  6.77734375 27.36328125  6.58203125 27.36328125  C 6.399739583333334 27.36328125  6.236979166666668 27.291666666666668  6.09375 27.1484375  C 4.453125 25.6640625  3.37890625 24.5703125  2.87109375 23.8671875  C 2.779947916666667 23.736979166666664  2.734375 23.587239583333336  2.734375 23.41796875  C 2.734375 23.26171875  2.786458333333334 23.111979166666664  2.890625 22.96875  C 3.0859375 22.6953125  3.41796875 22.262369791666668  3.8867187499999996 21.669921875000004  C 4.35546875 21.07747395833333  4.70703125 20.61848958333333  4.94140625 20.292968750000004  C 4.58984375 19.64192708333333  4.322916666666667 18.99739583333333  4.140625 18.359375000000004  L 0.56640625 17.832031250000004  C 0.39713541666666674 17.805989583333336  0.2604166666666667 17.724609375  0.15625 17.587890624999996  C 0.05208333333333333 17.451171875000004  0 17.29817708333333  0 17.128906250000004  L 0 12.792968749999998  C 0 12.636718750000002  0.05208333333333333 12.486979166666664  0.15625 12.343750000000002  C 0.2604166666666667 12.200520833333334  0.38411458333333337 12.115885416666666  0.52734375 12.089843749999998  L 4.16015625 11.54296875  C 4.342447916666667 10.944010416666666  4.596354166666667 10.345052083333332  4.921875 9.746093749999998  C 4.401041666666667 9.003906250000002  3.704427083333334 8.105468749999998  2.83203125 7.050781249999999  C 2.701822916666667 6.894531250000001  2.63671875 6.73828125  2.63671875 6.582031249999999  C 2.63671875 6.451822916666665  2.6953125 6.3020833333333295  2.8125 6.132812500000001  C 3.1510416666666665 5.664062500000001  3.792317708333334 4.96419270833333  4.736328125 4.033203124999999  C 5.680338541666668 3.1022135416666643  6.295572916666668 2.63671875  6.58203125 2.63671875  C 6.751302083333334 2.63671875  6.920572916666668 2.701822916666665  7.08984375 2.832031249999999  L 9.78515625 4.921875  C 10.358072916666668 4.622395833333331  10.950520833333336 4.375000000000001  11.5625 4.179687499999999  C 11.770833333333336 2.408854166666665  11.959635416666666 1.197916666666664  12.12890625 0.5468749999999989  C 12.220052083333334 0.1822916666666652  12.454427083333334 0  12.83203125 0  L 17.16796875 0  C 17.350260416666668 0  17.509765625 0.055338541666664076  17.646484375 0.1660156249999989  C 17.783203125 0.2766927083333304  17.858072916666668 0.4166666666666652  17.87109375 0.5859375  L 18.41796875 4.179687499999999  C 19.055989583333332 4.388020833333331  19.641927083333332 4.62890625  20.17578125 4.902343750000001  L 22.94921875 2.8125  C 23.06640625 2.6953125  23.22265625 2.63671875  23.41796875 2.63671875  C 23.587239583333336 2.63671875  23.75 2.701822916666665  23.90625 2.832031249999999  C 25.5859375 4.381510416666666  26.66015625 5.488281250000001  27.12890625 6.15234375  C 27.220052083333336 6.256510416666666  27.265625 6.39973958333333  27.265625 6.582031249999999  C 27.265625 6.73828125  27.21354166666667 6.8880208333333295  27.109375 7.03125  C 26.9140625 7.304687500000001  26.58203125 7.7376302083333295  26.11328125 8.330078125000002  C 25.64453125 8.922526041666666  25.29296875 9.381510416666664  25.05859375 9.707031250000002  C 25.39713541666667 10.358072916666666  25.6640625 10.996093749999998  25.859375 11.621093749999998  L 29.43359375 12.167968750000002  C 29.602864583333332 12.194010416666664  29.739583333333336 12.275390624999996  29.84375 12.412109374999998  Z " fill-rule="nonzero" fill="rgba(1, 111, 160, 1)" stroke="none" transform="matrix(1 0 0 1 45 188 )" class="fill" />
    <path d="M 18.53515625 18.535156250000004  C 19.51171875 17.558593749999996  20 16.380208333333332  20 15  C 20 13.619791666666664  19.51171875 12.441406249999998  18.53515625 11.464843750000002  C 17.55859375 10.48828125  16.380208333333336 10.000000000000002  15 10.000000000000002  C 13.619791666666668 10.000000000000002  12.44140625 10.48828125  11.46484375 11.464843750000002  C 10.48828125 12.441406249999998  10 13.619791666666664  10 15  C 10 16.380208333333332  10.48828125 17.558593749999996  11.46484375 18.535156250000004  C 12.44140625 19.51171875  13.619791666666668 20.000000000000004  15 20.000000000000004  C 16.380208333333336 20.000000000000004  17.55859375 19.51171875  18.53515625 18.535156250000004  Z " stroke-width="0" stroke-dasharray="0" stroke="rgba(255, 255, 255, 0)" fill="none" transform="matrix(1 0 0 1 45 188 )" class="stroke" mask="url(#Clip460)" />
    <path d="M 29.84375 12.412109374999998  C 29.947916666666664 12.548828125000002  30 12.701822916666666  30 12.871093750000002  L 30 17.207031249999996  C 30 17.363281250000004  29.947916666666664 17.513020833333336  29.84375 17.656250000000004  C 29.739583333333336 17.799479166666664  29.609375 17.88411458333333  29.453125 17.910156249999996  L 25.83984375 18.45703125  C 25.59244791666667 19.16015625  25.33854166666667 19.752604166666664  25.078125 20.234375000000004  C 25.53385416666667 20.885416666666668  26.23046875 21.783854166666664  27.16796875 22.9296875  C 27.298177083333336 23.0859375  27.36328125 23.248697916666668  27.36328125 23.41796875  C 27.36328125 23.587239583333336  27.3046875 23.736979166666664  27.1875 23.8671875  C 26.8359375 24.348958333333336  26.19140625 25.052083333333336  25.25390625 25.9765625  C 24.31640625 26.901041666666664  23.704427083333336 27.36328125  23.41796875 27.36328125  C 23.26171875 27.36328125  23.092447916666668 27.3046875  22.91015625 27.1875  L 20.21484375 25.078125  C 19.641927083333332 25.377604166666664  19.049479166666668 25.625  18.4375 25.8203125  C 18.229166666666668 27.591145833333336  18.040364583333336 28.802083333333336  17.87109375 29.453125  C 17.779947916666668 29.817708333333336  17.545572916666668 30  17.16796875 30  L 12.83203125 30  C 12.649739583333336 30  12.490234375 29.944661458333336  12.353515625 29.833984375  C 12.216796875 29.723307291666668  12.141927083333336 29.583333333333336  12.12890625 29.4140625  L 11.58203125 25.8203125  C 10.944010416666668 25.611979166666664  10.358072916666668 25.37109375  9.82421875 25.09765625  L 7.0703125 27.1875  C 6.940104166666668 27.3046875  6.77734375 27.36328125  6.58203125 27.36328125  C 6.399739583333334 27.36328125  6.236979166666668 27.291666666666668  6.09375 27.1484375  C 4.453125 25.6640625  3.37890625 24.5703125  2.87109375 23.8671875  C 2.779947916666667 23.736979166666664  2.734375 23.587239583333336  2.734375 23.41796875  C 2.734375 23.26171875  2.786458333333334 23.111979166666664  2.890625 22.96875  C 3.0859375 22.6953125  3.41796875 22.262369791666668  3.8867187499999996 21.669921875000004  C 4.35546875 21.07747395833333  4.70703125 20.61848958333333  4.94140625 20.292968750000004  C 4.58984375 19.64192708333333  4.322916666666667 18.99739583333333  4.140625 18.359375000000004  L 0.56640625 17.832031250000004  C 0.39713541666666674 17.805989583333336  0.2604166666666667 17.724609375  0.15625 17.587890624999996  C 0.05208333333333333 17.451171875000004  0 17.29817708333333  0 17.128906250000004  L 0 12.792968749999998  C 0 12.636718750000002  0.05208333333333333 12.486979166666664  0.15625 12.343750000000002  C 0.2604166666666667 12.200520833333334  0.38411458333333337 12.115885416666666  0.52734375 12.089843749999998  L 4.16015625 11.54296875  C 4.342447916666667 10.944010416666666  4.596354166666667 10.345052083333332  4.921875 9.746093749999998  C 4.401041666666667 9.003906250000002  3.704427083333334 8.105468749999998  2.83203125 7.050781249999999  C 2.701822916666667 6.894531250000001  2.63671875 6.73828125  2.63671875 6.582031249999999  C 2.63671875 6.451822916666665  2.6953125 6.3020833333333295  2.8125 6.132812500000001  C 3.1510416666666665 5.664062500000001  3.792317708333334 4.96419270833333  4.736328125 4.033203124999999  C 5.680338541666668 3.1022135416666643  6.295572916666668 2.63671875  6.58203125 2.63671875  C 6.751302083333334 2.63671875  6.920572916666668 2.701822916666665  7.08984375 2.832031249999999  L 9.78515625 4.921875  C 10.358072916666668 4.622395833333331  10.950520833333336 4.375000000000001  11.5625 4.179687499999999  C 11.770833333333336 2.408854166666665  11.959635416666666 1.197916666666664  12.12890625 0.5468749999999989  C 12.220052083333334 0.1822916666666652  12.454427083333334 0  12.83203125 0  L 17.16796875 0  C 17.350260416666668 0  17.509765625 0.055338541666664076  17.646484375 0.1660156249999989  C 17.783203125 0.2766927083333304  17.858072916666668 0.4166666666666652  17.87109375 0.5859375  L 18.41796875 4.179687499999999  C 19.055989583333332 4.388020833333331  19.641927083333332 4.62890625  20.17578125 4.902343750000001  L 22.94921875 2.8125  C 23.06640625 2.6953125  23.22265625 2.63671875  23.41796875 2.63671875  C 23.587239583333336 2.63671875  23.75 2.701822916666665  23.90625 2.832031249999999  C 25.5859375 4.381510416666666  26.66015625 5.488281250000001  27.12890625 6.15234375  C 27.220052083333336 6.256510416666666  27.265625 6.39973958333333  27.265625 6.582031249999999  C 27.265625 6.73828125  27.21354166666667 6.8880208333333295  27.109375 7.03125  C 26.9140625 7.304687500000001  26.58203125 7.7376302083333295  26.11328125 8.330078125000002  C 25.64453125 8.922526041666666  25.29296875 9.381510416666664  25.05859375 9.707031250000002  C 25.39713541666667 10.358072916666666  25.6640625 10.996093749999998  25.859375 11.621093749999998  L 29.43359375 12.167968750000002  C 29.602864583333332 12.194010416666664  29.739583333333336 12.275390624999996  29.84375 12.412109374999998  Z " stroke-width="0" stroke-dasharray="0" stroke="rgba(255, 255, 255, 0)" fill="none" transform="matrix(1 0 0 1 45 188 )" class="stroke" mask="url(#Clip460)" />
  </g>
</svg>