<?xml version="1.0" encoding="utf-8"?>
<svg version="1.1" xmlns:xlink="http://www.w3.org/1999/xlink" width="60px" height="60px" xmlns="http://www.w3.org/2000/svg">
  <defs>
    <mask fill="white" id="Clip458">
      <path d="M 60 95  C 43.35 95  30 81.65  30 65  L 30 65  C 30 48.35  43.35 35  60 35  L 60 35  C 76.65 35  90 48.35  90 65  L 90 65  C 90 81.65  76.65 95  60 95  " fill-rule="evenodd" />
    </mask>
  </defs>
  <g transform="matrix(1 0 0 1 -30 -35 )">
    <path d="M 30 35  L 90 35  L 90 95  L 30 95  L 30 35  " fill-rule="nonzero" fill="rgba(204, 204, 204, 1)" stroke="none" class="fill" mask="url(#Clip458)" />
    <path d="M 34 39  L 86 39  L 86 91  L 34 91  L 34 39  " fill-rule="nonzero" fill="rgba(255, 255, 255, 1)" stroke="none" class="fill" mask="url(#Clip458)" />
    <path d="M 65.7 53  C 63.18 53  61.2 51.02  61.2 48.5  C 61.2 45.98  63.18 44  65.7 44  C 68.22 44  70.2 45.98  70.2 48.5  C 70.2 51.02  68.22 53  65.7 53  " fill-rule="nonzero" fill="rgba(204, 204, 204, 1)" stroke="none" class="fill" mask="url(#Clip458)" />
    <path d="M 36 90  L 36 63.05  L 48.25 50.8  L 65.4 60.6  L 75.2 58.15  L 85 60.6  L 85 90  L 36 90  " fill-rule="nonzero" fill="rgba(22, 155, 213, 1)" stroke="none" class="fill" mask="url(#Clip458)" />
  </g>
</svg>