<?xml version="1.0" encoding="utf-8"?>
<svg version="1.1" xmlns:xlink="http://www.w3.org/1999/xlink" width="21px" height="30px" xmlns="http://www.w3.org/2000/svg">
  <defs>
    <pattern id="BGPattern" patternUnits="userSpaceOnUse" alignment="0 0" imageRepeat="None" />
    <mask fill="white" id="Clip80">
      <path d="M 5.833333333333334 9.545454545454547  L 5.833333333333334 13.636363636363637  L 15.166666666666666 13.636363636363637  L 15.166666666666666 9.545454545454547  C 15.166666666666666 8.039772727272727  14.7109375 6.754261363636362  13.799479166666668 5.688920454545453  C 12.888020833333334 4.623579545454547  11.788194444444446 4.090909090909091  10.5 4.090909090909091  C 9.211805555555557 4.090909090909091  8.111979166666666 4.623579545454547  7.200520833333333 5.688920454545453  C 6.2890625 6.754261363636362  5.833333333333334 8.039772727272727  5.833333333333334 9.545454545454547  Z M 20.489583333333332 14.232954545454547  C 20.829861111111114 14.630681818181818  21 15.11363636363636  21 15.681818181818182  L 21 27.954545454545457  C 21 28.522727272727273  20.829861111111114 29.005681818181817  20.489583333333332 29.40340909090909  C 20.14930555555556 29.801136363636363  19.736111111111114 30  19.25 30  L 1.75 30  C 1.263888888888889 30  0.8506944444444445 29.801136363636363  0.5104166666666666 29.40340909090909  C 0.17013888888888887 29.005681818181817  0 28.522727272727273  0 27.954545454545457  L 0 15.681818181818182  C 0 15.11363636363636  0.17013888888888887 14.630681818181818  0.5104166666666666 14.232954545454547  C 0.8506944444444445 13.835227272727273  1.263888888888889 13.636363636363637  1.75 13.636363636363637  L 2.333333333333333 13.636363636363637  L 2.333333333333333 9.545454545454547  C 2.333333333333333 6.931818181818179  3.1354166666666665 4.6875  4.739583333333333 2.8125  C 6.34375 0.9375  8.26388888888889 0  10.5 0  C 12.736111111111112 0  14.65625 0.9375  16.260416666666668 2.8125  C 17.864583333333332 4.6875  18.666666666666664 6.931818181818179  18.666666666666664 9.545454545454547  L 18.666666666666664 13.636363636363637  L 19.25 13.636363636363637  C 19.736111111111114 13.636363636363637  20.14930555555556 13.835227272727273  20.489583333333332 14.232954545454547  Z " fill-rule="evenodd" />
    </mask>
  </defs>
  <g transform="matrix(1 0 0 1 -60 -460 )">
    <path d="M 5.833333333333334 9.545454545454547  L 5.833333333333334 13.636363636363637  L 15.166666666666666 13.636363636363637  L 15.166666666666666 9.545454545454547  C 15.166666666666666 8.039772727272727  14.7109375 6.754261363636362  13.799479166666668 5.688920454545453  C 12.888020833333334 4.623579545454547  11.788194444444446 4.090909090909091  10.5 4.090909090909091  C 9.211805555555557 4.090909090909091  8.111979166666666 4.623579545454547  7.200520833333333 5.688920454545453  C 6.2890625 6.754261363636362  5.833333333333334 8.039772727272727  5.833333333333334 9.545454545454547  Z M 20.489583333333332 14.232954545454547  C 20.829861111111114 14.630681818181818  21 15.11363636363636  21 15.681818181818182  L 21 27.954545454545457  C 21 28.522727272727273  20.829861111111114 29.005681818181817  20.489583333333332 29.40340909090909  C 20.14930555555556 29.801136363636363  19.736111111111114 30  19.25 30  L 1.75 30  C 1.263888888888889 30  0.8506944444444445 29.801136363636363  0.5104166666666666 29.40340909090909  C 0.17013888888888887 29.005681818181817  0 28.522727272727273  0 27.954545454545457  L 0 15.681818181818182  C 0 15.11363636363636  0.17013888888888887 14.630681818181818  0.5104166666666666 14.232954545454547  C 0.8506944444444445 13.835227272727273  1.263888888888889 13.636363636363637  1.75 13.636363636363637  L 2.333333333333333 13.636363636363637  L 2.333333333333333 9.545454545454547  C 2.333333333333333 6.931818181818179  3.1354166666666665 4.6875  4.739583333333333 2.8125  C 6.34375 0.9375  8.26388888888889 0  10.5 0  C 12.736111111111112 0  14.65625 0.9375  16.260416666666668 2.8125  C 17.864583333333332 4.6875  18.666666666666664 6.931818181818179  18.666666666666664 9.545454545454547  L 18.666666666666664 13.636363636363637  L 19.25 13.636363636363637  C 19.736111111111114 13.636363636363637  20.14930555555556 13.835227272727273  20.489583333333332 14.232954545454547  Z " fill-rule="nonzero" fill="rgba(0, 0, 0, 1)" stroke="none" transform="matrix(1 0 0 1 60 460 )" class="fill" />
    <path d="M 5.833333333333334 9.545454545454547  L 5.833333333333334 13.636363636363637  L 15.166666666666666 13.636363636363637  L 15.166666666666666 9.545454545454547  C 15.166666666666666 8.039772727272727  14.7109375 6.754261363636362  13.799479166666668 5.688920454545453  C 12.888020833333334 4.623579545454547  11.788194444444446 4.090909090909091  10.5 4.090909090909091  C 9.211805555555557 4.090909090909091  8.111979166666666 4.623579545454547  7.200520833333333 5.688920454545453  C 6.2890625 6.754261363636362  5.833333333333334 8.039772727272727  5.833333333333334 9.545454545454547  Z " stroke-width="0" stroke-dasharray="0" stroke="rgba(255, 255, 255, 0)" fill="none" transform="matrix(1 0 0 1 60 460 )" class="stroke" mask="url(#Clip80)" />
    <path d="M 20.489583333333332 14.232954545454547  C 20.829861111111114 14.630681818181818  21 15.11363636363636  21 15.681818181818182  L 21 27.954545454545457  C 21 28.522727272727273  20.829861111111114 29.005681818181817  20.489583333333332 29.40340909090909  C 20.14930555555556 29.801136363636363  19.736111111111114 30  19.25 30  L 1.75 30  C 1.263888888888889 30  0.8506944444444445 29.801136363636363  0.5104166666666666 29.40340909090909  C 0.17013888888888887 29.005681818181817  0 28.522727272727273  0 27.954545454545457  L 0 15.681818181818182  C 0 15.11363636363636  0.17013888888888887 14.630681818181818  0.5104166666666666 14.232954545454547  C 0.8506944444444445 13.835227272727273  1.263888888888889 13.636363636363637  1.75 13.636363636363637  L 2.333333333333333 13.636363636363637  L 2.333333333333333 9.545454545454547  C 2.333333333333333 6.931818181818179  3.1354166666666665 4.6875  4.739583333333333 2.8125  C 6.34375 0.9375  8.26388888888889 0  10.5 0  C 12.736111111111112 0  14.65625 0.9375  16.260416666666668 2.8125  C 17.864583333333332 4.6875  18.666666666666664 6.931818181818179  18.666666666666664 9.545454545454547  L 18.666666666666664 13.636363636363637  L 19.25 13.636363636363637  C 19.736111111111114 13.636363636363637  20.14930555555556 13.835227272727273  20.489583333333332 14.232954545454547  Z " stroke-width="0" stroke-dasharray="0" stroke="rgba(255, 255, 255, 0)" fill="none" transform="matrix(1 0 0 1 60 460 )" class="stroke" mask="url(#Clip80)" />
  </g>
</svg>