<?xml version="1.0" encoding="utf-8"?>
<svg version="1.1" xmlns:xlink="http://www.w3.org/1999/xlink" width="21px" height="30px" xmlns="http://www.w3.org/2000/svg">
  <defs>
    <pattern id="BGPattern" patternUnits="userSpaceOnUse" alignment="0 0" imageRepeat="None" />
    <mask fill="white" id="Clip81">
      <path d="M 20.860546875 21.689453124999996  C 20.953515625 22.672526041666664  21 23.717447916666668  21 24.82421875  C 21 26.243489583333336  20.658203125 27.4609375  19.974609375 28.4765625  C 19.291015625 29.4921875  18.46796875 30  17.505468750000002 30  L 3.49453125 30  C 2.53203125 30  1.7089843750000002 29.4921875  1.0253906250000002 28.4765625  C 0.3417968750000001 27.4609375  0 26.243489583333336  0 24.82421875  C 0 23.717447916666668  0.046484375000000105 22.672526041666664  0.13945312500000012 21.689453124999996  C 0.2324218750000001 20.70638020833333  0.4046875000000001 19.716796875  0.6562500000000001 18.720703125  C 0.9078125000000002 17.724609375  1.2277343750000003 16.871744791666668  1.616015625 16.162109375000004  C 2.0042968750000005 15.45247395833333  2.5183593749999997 14.873046874999998  3.158203125 14.423828125000002  C 3.798046875 13.974609375  4.5335937500000005 13.750000000000002  5.36484375 13.750000000000002  C 6.797656250000001 15.416666666666664  8.509375000000002 16.250000000000004  10.5 16.250000000000004  C 12.490625000000003 16.250000000000004  14.202343750000002 15.416666666666664  15.63515625 13.750000000000002  C 16.466406250000002 13.750000000000002  17.201953125 13.974609375  17.841796875 14.423828125000002  C 18.481640625 14.873046874999998  18.995703125000002 15.45247395833333  19.383984375 16.162109375000004  C 19.772265625000003 16.871744791666668  20.0921875 17.724609375  20.34375 18.720703125  C 20.595312500000002 19.716796875  20.767578125 20.70638020833333  20.860546875 21.689453124999996  Z M 14.954296875 2.197265625  C 16.184765625 3.662109375  16.8 5.429687500000001  16.8 7.5  C 16.8 9.570312499999998  16.184765625 11.337890625  14.954296875 12.802734375  C 13.723828125 14.267578125  12.2390625 15  10.5 15  C 8.760937499999999 15  7.276171875 14.267578125  6.045703125 12.802734375  C 4.815234375 11.337890625  4.2 9.570312499999998  4.2 7.5  C 4.2 5.429687500000001  4.815234375 3.662109375  6.045703125 2.197265625  C 7.276171875 0.732421875  8.760937499999999 0  10.5 0  C 12.2390625 0  13.723828125 0.732421875  14.954296875 2.197265625  Z " fill-rule="evenodd" />
    </mask>
  </defs>
  <g transform="matrix(1 0 0 1 -60 -410 )">
    <path d="M 20.860546875 21.689453124999996  C 20.953515625 22.672526041666664  21 23.717447916666668  21 24.82421875  C 21 26.243489583333336  20.658203125 27.4609375  19.974609375 28.4765625  C 19.291015625 29.4921875  18.46796875 30  17.505468750000002 30  L 3.49453125 30  C 2.53203125 30  1.7089843750000002 29.4921875  1.0253906250000002 28.4765625  C 0.3417968750000001 27.4609375  0 26.243489583333336  0 24.82421875  C 0 23.717447916666668  0.046484375000000105 22.672526041666664  0.13945312500000012 21.689453124999996  C 0.2324218750000001 20.70638020833333  0.4046875000000001 19.716796875  0.6562500000000001 18.720703125  C 0.9078125000000002 17.724609375  1.2277343750000003 16.871744791666668  1.616015625 16.162109375000004  C 2.0042968750000005 15.45247395833333  2.5183593749999997 14.873046874999998  3.158203125 14.423828125000002  C 3.798046875 13.974609375  4.5335937500000005 13.750000000000002  5.36484375 13.750000000000002  C 6.797656250000001 15.416666666666664  8.509375000000002 16.250000000000004  10.5 16.250000000000004  C 12.490625000000003 16.250000000000004  14.202343750000002 15.416666666666664  15.63515625 13.750000000000002  C 16.466406250000002 13.750000000000002  17.201953125 13.974609375  17.841796875 14.423828125000002  C 18.481640625 14.873046874999998  18.995703125000002 15.45247395833333  19.383984375 16.162109375000004  C 19.772265625000003 16.871744791666668  20.0921875 17.724609375  20.34375 18.720703125  C 20.595312500000002 19.716796875  20.767578125 20.70638020833333  20.860546875 21.689453124999996  Z M 14.954296875 2.197265625  C 16.184765625 3.662109375  16.8 5.429687500000001  16.8 7.5  C 16.8 9.570312499999998  16.184765625 11.337890625  14.954296875 12.802734375  C 13.723828125 14.267578125  12.2390625 15  10.5 15  C 8.760937499999999 15  7.276171875 14.267578125  6.045703125 12.802734375  C 4.815234375 11.337890625  4.2 9.570312499999998  4.2 7.5  C 4.2 5.429687500000001  4.815234375 3.662109375  6.045703125 2.197265625  C 7.276171875 0.732421875  8.760937499999999 0  10.5 0  C 12.2390625 0  13.723828125 0.732421875  14.954296875 2.197265625  Z " fill-rule="nonzero" fill="rgba(0, 0, 0, 1)" stroke="none" transform="matrix(1 0 0 1 60 410 )" class="fill" />
    <path d="M 20.860546875 21.689453124999996  C 20.953515625 22.672526041666664  21 23.717447916666668  21 24.82421875  C 21 26.243489583333336  20.658203125 27.4609375  19.974609375 28.4765625  C 19.291015625 29.4921875  18.46796875 30  17.505468750000002 30  L 3.49453125 30  C 2.53203125 30  1.7089843750000002 29.4921875  1.0253906250000002 28.4765625  C 0.3417968750000001 27.4609375  0 26.243489583333336  0 24.82421875  C 0 23.717447916666668  0.046484375000000105 22.672526041666664  0.13945312500000012 21.689453124999996  C 0.2324218750000001 20.70638020833333  0.4046875000000001 19.716796875  0.6562500000000001 18.720703125  C 0.9078125000000002 17.724609375  1.2277343750000003 16.871744791666668  1.616015625 16.162109375000004  C 2.0042968750000005 15.45247395833333  2.5183593749999997 14.873046874999998  3.158203125 14.423828125000002  C 3.798046875 13.974609375  4.5335937500000005 13.750000000000002  5.36484375 13.750000000000002  C 6.797656250000001 15.416666666666664  8.509375000000002 16.250000000000004  10.5 16.250000000000004  C 12.490625000000003 16.250000000000004  14.202343750000002 15.416666666666664  15.63515625 13.750000000000002  C 16.466406250000002 13.750000000000002  17.201953125 13.974609375  17.841796875 14.423828125000002  C 18.481640625 14.873046874999998  18.995703125000002 15.45247395833333  19.383984375 16.162109375000004  C 19.772265625000003 16.871744791666668  20.0921875 17.724609375  20.34375 18.720703125  C 20.595312500000002 19.716796875  20.767578125 20.70638020833333  20.860546875 21.689453124999996  Z " stroke-width="0" stroke-dasharray="0" stroke="rgba(255, 255, 255, 0)" fill="none" transform="matrix(1 0 0 1 60 410 )" class="stroke" mask="url(#Clip81)" />
    <path d="M 14.954296875 2.197265625  C 16.184765625 3.662109375  16.8 5.429687500000001  16.8 7.5  C 16.8 9.570312499999998  16.184765625 11.337890625  14.954296875 12.802734375  C 13.723828125 14.267578125  12.2390625 15  10.5 15  C 8.760937499999999 15  7.276171875 14.267578125  6.045703125 12.802734375  C 4.815234375 11.337890625  4.2 9.570312499999998  4.2 7.5  C 4.2 5.429687500000001  4.815234375 3.662109375  6.045703125 2.197265625  C 7.276171875 0.732421875  8.760937499999999 0  10.5 0  C 12.2390625 0  13.723828125 0.732421875  14.954296875 2.197265625  Z " stroke-width="0" stroke-dasharray="0" stroke="rgba(255, 255, 255, 0)" fill="none" transform="matrix(1 0 0 1 60 410 )" class="stroke" mask="url(#Clip81)" />
  </g>
</svg>