<?xml version="1.0" encoding="utf-8"?>
<svg version="1.1" xmlns:xlink="http://www.w3.org/1999/xlink" width="190px" height="190px" xmlns="http://www.w3.org/2000/svg">
  <defs>
    <pattern id="BGPattern" patternUnits="userSpaceOnUse" alignment="0 0" imageRepeat="None" />
    <mask fill="white" id="Clip469">
      <path d="M 154.2400568181818 87.578125  C 155.0497159090909 88.3877840909091  155.45454545454547 89.42234848484847  155.45454545454547 90.68181818181819  L 155.45454545454547 99.31818181818181  C 155.45454545454547 100.5776515151515  155.0497159090909 101.6122159090909  154.2400568181818 102.421875  C 153.43039772727272 103.2315340909091  152.39583333333337 103.63636363636363  151.13636363636363 103  L 103 103  L 103 151.13636363636363  C 103.63636363636363 152.39583333333331  103.2315340909091 153.43039772727272  102.421875 154.2400568181818  C 101.6122159090909 155.0497159090909  100.57765151515153 155.45454545454544  99.31818181818181 155.45454545454544  L 90.68181818181819 155.45454545454544  C 89.4223484848485 155.45454545454544  88.3877840909091 155.0497159090909  87.578125 154.2400568181818  C 86.7684659090909 153.43039772727272  86.36363636363636 152.39583333333331  87 151.13636363636363  L 87 103  L 38.86363636363637 103  C 37.60416666666667 103.63636363636363  36.56960227272727 103.2315340909091  35.75994318181818 102.421875  C 34.95028409090909 101.6122159090909  34.54545454545455 100.5776515151515  34.54545454545455 99.31818181818181  L 34.54545454545455 90.68181818181819  C 34.54545454545455 89.42234848484847  34.95028409090909 88.3877840909091  35.75994318181818 87.578125  C 36.56960227272727 86.7684659090909  37.60416666666667 86.36363636363637  38.86363636363637 87  L 87 87  L 87 38.863636363636374  C 86.36363636363636 37.604166666666636  86.7684659090909 36.56960227272728  87.578125 35.75994318181819  C 88.3877840909091 34.95028409090909  89.4223484848485 34.54545454545453  90.68181818181819 34.54545454545453  L 99.31818181818181 34.54545454545453  C 100.57765151515153 34.54545454545453  101.6122159090909 34.95028409090909  102.421875 35.75994318181819  C 103.2315340909091 36.56960227272728  103.63636363636363 37.604166666666636  103 38.863636363636374  L 103 87  L 151.13636363636363 87  C 152.39583333333337 86.36363636363637  153.43039772727272 86.7684659090909  154.2400568181818 87.578125  Z M 166.3849431818182 166.3849431818182  C 170.6131628787879 162.15672348484844  172.72727272727272 157.07386363636363  172 151.13636363636363  L 172 38.863636363636374  C 172.72727272727272 32.926136363636374  170.6131628787879 27.843276515151505  166.3849431818182 23.615056818181813  C 162.1567234848485 19.386837121212103  157.07386363636363 17.272727272727277  151.13636363636363 18  L 38.86363636363637 18  C 32.92613636363637 17.272727272727277  27.84327651515152 19.386837121212103  23.615056818181817 23.615056818181813  C 19.386837121212125 27.843276515151505  17.272727272727273 32.926136363636374  18 38.863636363636374  L 18 151.13636363636363  C 17.272727272727273 157.07386363636363  19.386837121212125 162.15672348484844  23.615056818181817 166.3849431818182  C 27.84327651515152 170.61316287878788  32.92613636363637 172.72727272727272  38.86363636363637 172  L 151.13636363636363 172  C 157.07386363636363 172.72727272727272  162.1567234848485 170.61316287878788  166.3849431818182 166.3849431818182  Z M 178.59730113636363 11.40269886363637  C 186.1991003787879 19.0044981060606  190 28.158143939393916  190 38.863636363636374  L 190 151.13636363636363  C 190 161.84185606060606  186.1991003787879 170.9955018939394  178.59730113636363 178.59730113636363  C 170.9955018939394 186.19910037878788  161.8418560606061 190  151.13636363636363 190  L 38.86363636363637 190  C 28.158143939393945 190  19.00449810606061 186.19910037878788  11.402698863636363 178.59730113636363  C 3.800899621212121 170.9955018939394  0 161.84185606060606  0 151.13636363636363  L 0 38.863636363636374  C 0 28.158143939393916  3.800899621212121 19.0044981060606  11.402698863636363 11.40269886363637  C 19.00449810606061 3.8008996212121025  28.158143939393945 0  38.86363636363637 0  L 151.13636363636363 0  C 161.8418560606061 0  170.9955018939394 3.8008996212121025  178.59730113636363 11.40269886363637  Z " fill-rule="evenodd" />
    </mask>
  </defs>
  <g transform="matrix(1 0 0 1 -101 -90 )">
    <path d="M 154.2400568181818 87.578125  C 155.0497159090909 88.3877840909091  155.45454545454547 89.42234848484847  155.45454545454547 90.68181818181819  L 155.45454545454547 99.31818181818181  C 155.45454545454547 100.5776515151515  155.0497159090909 101.6122159090909  154.2400568181818 102.421875  C 153.43039772727272 103.2315340909091  152.39583333333337 103.63636363636363  151.13636363636363 103  L 103 103  L 103 151.13636363636363  C 103.63636363636363 152.39583333333331  103.2315340909091 153.43039772727272  102.421875 154.2400568181818  C 101.6122159090909 155.0497159090909  100.57765151515153 155.45454545454544  99.31818181818181 155.45454545454544  L 90.68181818181819 155.45454545454544  C 89.4223484848485 155.45454545454544  88.3877840909091 155.0497159090909  87.578125 154.2400568181818  C 86.7684659090909 153.43039772727272  86.36363636363636 152.39583333333331  87 151.13636363636363  L 87 103  L 38.86363636363637 103  C 37.60416666666667 103.63636363636363  36.56960227272727 103.2315340909091  35.75994318181818 102.421875  C 34.95028409090909 101.6122159090909  34.54545454545455 100.5776515151515  34.54545454545455 99.31818181818181  L 34.54545454545455 90.68181818181819  C 34.54545454545455 89.42234848484847  34.95028409090909 88.3877840909091  35.75994318181818 87.578125  C 36.56960227272727 86.7684659090909  37.60416666666667 86.36363636363637  38.86363636363637 87  L 87 87  L 87 38.863636363636374  C 86.36363636363636 37.604166666666636  86.7684659090909 36.56960227272728  87.578125 35.75994318181819  C 88.3877840909091 34.95028409090909  89.4223484848485 34.54545454545453  90.68181818181819 34.54545454545453  L 99.31818181818181 34.54545454545453  C 100.57765151515153 34.54545454545453  101.6122159090909 34.95028409090909  102.421875 35.75994318181819  C 103.2315340909091 36.56960227272728  103.63636363636363 37.604166666666636  103 38.863636363636374  L 103 87  L 151.13636363636363 87  C 152.39583333333337 86.36363636363637  153.43039772727272 86.7684659090909  154.2400568181818 87.578125  Z M 166.3849431818182 166.3849431818182  C 170.6131628787879 162.15672348484844  172.72727272727272 157.07386363636363  172 151.13636363636363  L 172 38.863636363636374  C 172.72727272727272 32.926136363636374  170.6131628787879 27.843276515151505  166.3849431818182 23.615056818181813  C 162.1567234848485 19.386837121212103  157.07386363636363 17.272727272727277  151.13636363636363 18  L 38.86363636363637 18  C 32.92613636363637 17.272727272727277  27.84327651515152 19.386837121212103  23.615056818181817 23.615056818181813  C 19.386837121212125 27.843276515151505  17.272727272727273 32.926136363636374  18 38.863636363636374  L 18 151.13636363636363  C 17.272727272727273 157.07386363636363  19.386837121212125 162.15672348484844  23.615056818181817 166.3849431818182  C 27.84327651515152 170.61316287878788  32.92613636363637 172.72727272727272  38.86363636363637 172  L 151.13636363636363 172  C 157.07386363636363 172.72727272727272  162.1567234848485 170.61316287878788  166.3849431818182 166.3849431818182  Z M 178.59730113636363 11.40269886363637  C 186.1991003787879 19.0044981060606  190 28.158143939393916  190 38.863636363636374  L 190 151.13636363636363  C 190 161.84185606060606  186.1991003787879 170.9955018939394  178.59730113636363 178.59730113636363  C 170.9955018939394 186.19910037878788  161.8418560606061 190  151.13636363636363 190  L 38.86363636363637 190  C 28.158143939393945 190  19.00449810606061 186.19910037878788  11.402698863636363 178.59730113636363  C 3.800899621212121 170.9955018939394  0 161.84185606060606  0 151.13636363636363  L 0 38.863636363636374  C 0 28.158143939393916  3.800899621212121 19.0044981060606  11.402698863636363 11.40269886363637  C 19.00449810606061 3.8008996212121025  28.158143939393945 0  38.86363636363637 0  L 151.13636363636363 0  C 161.8418560606061 0  170.9955018939394 3.8008996212121025  178.59730113636363 11.40269886363637  Z " fill-rule="nonzero" fill="rgba(129, 211, 248, 0.6627450980392157)" stroke="none" transform="matrix(1 0 0 1 101 90 )" class="fill" />
    <path d="M 154.2400568181818 87.578125  C 155.0497159090909 88.3877840909091  155.45454545454547 89.42234848484847  155.45454545454547 90.68181818181819  L 155.45454545454547 99.31818181818181  C 155.45454545454547 100.5776515151515  155.0497159090909 101.6122159090909  154.2400568181818 102.421875  C 153.43039772727272 103.2315340909091  152.39583333333337 103.63636363636363  151.13636363636363 103  L 103 103  L 103 151.13636363636363  C 103.63636363636363 152.39583333333331  103.2315340909091 153.43039772727272  102.421875 154.2400568181818  C 101.6122159090909 155.0497159090909  100.57765151515153 155.45454545454544  99.31818181818181 155.45454545454544  L 90.68181818181819 155.45454545454544  C 89.4223484848485 155.45454545454544  88.3877840909091 155.0497159090909  87.578125 154.2400568181818  C 86.7684659090909 153.43039772727272  86.36363636363636 152.39583333333331  87 151.13636363636363  L 87 103  L 38.86363636363637 103  C 37.60416666666667 103.63636363636363  36.56960227272727 103.2315340909091  35.75994318181818 102.421875  C 34.95028409090909 101.6122159090909  34.54545454545455 100.5776515151515  34.54545454545455 99.31818181818181  L 34.54545454545455 90.68181818181819  C 34.54545454545455 89.42234848484847  34.95028409090909 88.3877840909091  35.75994318181818 87.578125  C 36.56960227272727 86.7684659090909  37.60416666666667 86.36363636363637  38.86363636363637 87  L 87 87  L 87 38.863636363636374  C 86.36363636363636 37.604166666666636  86.7684659090909 36.56960227272728  87.578125 35.75994318181819  C 88.3877840909091 34.95028409090909  89.4223484848485 34.54545454545453  90.68181818181819 34.54545454545453  L 99.31818181818181 34.54545454545453  C 100.57765151515153 34.54545454545453  101.6122159090909 34.95028409090909  102.421875 35.75994318181819  C 103.2315340909091 36.56960227272728  103.63636363636363 37.604166666666636  103 38.863636363636374  L 103 87  L 151.13636363636363 87  C 152.39583333333337 86.36363636363637  153.43039772727272 86.7684659090909  154.2400568181818 87.578125  Z " stroke-width="0" stroke-dasharray="0" stroke="rgba(255, 255, 255, 0)" fill="none" transform="matrix(1 0 0 1 101 90 )" class="stroke" mask="url(#Clip469)" />
    <path d="M 166.3849431818182 166.3849431818182  C 170.6131628787879 162.15672348484844  172.72727272727272 157.07386363636363  172 151.13636363636363  L 172 38.863636363636374  C 172.72727272727272 32.926136363636374  170.6131628787879 27.843276515151505  166.3849431818182 23.615056818181813  C 162.1567234848485 19.386837121212103  157.07386363636363 17.272727272727277  151.13636363636363 18  L 38.86363636363637 18  C 32.92613636363637 17.272727272727277  27.84327651515152 19.386837121212103  23.615056818181817 23.615056818181813  C 19.386837121212125 27.843276515151505  17.272727272727273 32.926136363636374  18 38.863636363636374  L 18 151.13636363636363  C 17.272727272727273 157.07386363636363  19.386837121212125 162.15672348484844  23.615056818181817 166.3849431818182  C 27.84327651515152 170.61316287878788  32.92613636363637 172.72727272727272  38.86363636363637 172  L 151.13636363636363 172  C 157.07386363636363 172.72727272727272  162.1567234848485 170.61316287878788  166.3849431818182 166.3849431818182  Z " stroke-width="0" stroke-dasharray="0" stroke="rgba(255, 255, 255, 0)" fill="none" transform="matrix(1 0 0 1 101 90 )" class="stroke" mask="url(#Clip469)" />
    <path d="M 178.59730113636363 11.40269886363637  C 186.1991003787879 19.0044981060606  190 28.158143939393916  190 38.863636363636374  L 190 151.13636363636363  C 190 161.84185606060606  186.1991003787879 170.9955018939394  178.59730113636363 178.59730113636363  C 170.9955018939394 186.19910037878788  161.8418560606061 190  151.13636363636363 190  L 38.86363636363637 190  C 28.158143939393945 190  19.00449810606061 186.19910037878788  11.402698863636363 178.59730113636363  C 3.800899621212121 170.9955018939394  0 161.84185606060606  0 151.13636363636363  L 0 38.863636363636374  C 0 28.158143939393916  3.800899621212121 19.0044981060606  11.402698863636363 11.40269886363637  C 19.00449810606061 3.8008996212121025  28.158143939393945 0  38.86363636363637 0  L 151.13636363636363 0  C 161.8418560606061 0  170.9955018939394 3.8008996212121025  178.59730113636363 11.40269886363637  Z " stroke-width="0" stroke-dasharray="0" stroke="rgba(255, 255, 255, 0)" fill="none" transform="matrix(1 0 0 1 101 90 )" class="stroke" mask="url(#Clip469)" />
  </g>
</svg>