<?xml version="1.0" encoding="utf-8"?>
<svg version="1.1" xmlns:xlink="http://www.w3.org/1999/xlink" width="37px" height="40px" xmlns="http://www.w3.org/2000/svg">
  <defs>
    <pattern id="BGPattern" patternUnits="userSpaceOnUse" alignment="0 0" imageRepeat="None" />
    <mask fill="white" id="Clip86">
      <path d="M 22.860026041666664 15.286458333333336  C 24.064453125 16.588541666666664  24.666666666666664 18.159722222222218  24.666666666666664 20  C 24.666666666666664 21.84027777777778  24.064453125 23.41145833333333  22.860026041666664 24.71354166666667  C 21.655598958333336 26.015625  20.202256944444446 26.66666666666667  18.5 26.66666666666667  C 16.797743055555557 26.66666666666667  15.344401041666668 26.015625  14.139973958333332 24.71354166666667  C 12.935546875 23.41145833333333  12.333333333333332 21.84027777777778  12.333333333333332 20  C 12.333333333333332 18.159722222222218  12.935546875 16.588541666666664  14.139973958333332 15.286458333333336  C 15.344401041666668 13.984375  16.797743055555557 13.333333333333336  18.5 13.333333333333336  C 20.202256944444446 13.333333333333336  21.655598958333336 13.984375  22.860026041666664 15.286458333333336  Z M 25.076171875 7.734375  C 23.06879340277778 6.467013888888888  20.876736111111114 5.833333333333335  18.5 5.833333333333335  C 16.12326388888889 5.833333333333335  13.931206597222223 6.467013888888888  11.923828125 7.734375  C 9.916449652777779 9.001736111111107  8.326605902777779 10.720486111111107  7.154296875 12.890625  C 5.981987847222223 15.06076388888889  5.395833333333334 17.430555555555554  5.395833333333334 20  C 5.395833333333334 22.569444444444446  5.981987847222223 24.939236111111107  7.154296875 27.109375  C 8.326605902777779 29.279513888888886  9.916449652777779 30.99826388888889  11.923828125 32.265625  C 13.931206597222223 33.532986111111114  16.12326388888889 34.166666666666664  18.5 34.166666666666664  C 20.876736111111114 34.166666666666664  23.06879340277778 33.532986111111114  25.076171875 32.265625  C 27.083550347222225 30.99826388888889  28.673394097222225 29.279513888888886  29.845703125 27.109375  C 31.01801215277778 24.939236111111107  31.604166666666664 22.569444444444446  31.604166666666664 20  C 31.604166666666664 17.430555555555554  31.01801215277778 15.06076388888889  29.845703125 12.890625  C 28.673394097222225 10.720486111111107  27.083550347222225 9.001736111111107  25.076171875 7.734375  Z M 34.518880208333336 9.9609375  C 36.17296006944444 13.025173611111107  37 16.37152777777777  37 20  C 37 23.62847222222222  36.17296006944444 26.974826388888886  34.518880208333336 30.0390625  C 32.86480034722223 33.103298611111114  30.62055121527778 35.529513888888886  27.7861328125 37.317708333333336  C 24.951714409722225 39.10590277777778  21.856336805555557 40  18.5 40  C 15.143663194444446 40  12.048285590277779 39.10590277777778  9.2138671875 37.317708333333336  C 6.379448784722223 35.529513888888886  4.135199652777779 33.103298611111114  2.481119791666667 30.0390625  C 0.8270399305555555 26.974826388888886  0 23.62847222222222  0 20  C 0 16.37152777777777  0.8270399305555555 13.025173611111107  2.481119791666667 9.9609375  C 4.135199652777779 6.896701388888888  6.379448784722223 4.470486111111107  9.2138671875 2.682291666666665  C 12.048285590277779 0.8940972222222188  15.143663194444446 0  18.5 0  C 21.856336805555557 0  24.951714409722225 0.8940972222222188  27.7861328125 2.682291666666665  C 30.62055121527778 4.470486111111107  32.86480034722223 6.896701388888888  34.518880208333336 9.9609375  Z " fill-rule="evenodd" />
    </mask>
  </defs>
  <g>
    <path d="M 22.860026041666664 15.286458333333336  C 24.064453125 16.588541666666664  24.666666666666664 18.159722222222218  24.666666666666664 20  C 24.666666666666664 21.84027777777778  24.064453125 23.41145833333333  22.860026041666664 24.71354166666667  C 21.655598958333336 26.015625  20.202256944444446 26.66666666666667  18.5 26.66666666666667  C 16.797743055555557 26.66666666666667  15.344401041666668 26.015625  14.139973958333332 24.71354166666667  C 12.935546875 23.41145833333333  12.333333333333332 21.84027777777778  12.333333333333332 20  C 12.333333333333332 18.159722222222218  12.935546875 16.588541666666664  14.139973958333332 15.286458333333336  C 15.344401041666668 13.984375  16.797743055555557 13.333333333333336  18.5 13.333333333333336  C 20.202256944444446 13.333333333333336  21.655598958333336 13.984375  22.860026041666664 15.286458333333336  Z M 25.076171875 7.734375  C 23.06879340277778 6.467013888888888  20.876736111111114 5.833333333333335  18.5 5.833333333333335  C 16.12326388888889 5.833333333333335  13.931206597222223 6.467013888888888  11.923828125 7.734375  C 9.916449652777779 9.001736111111107  8.326605902777779 10.720486111111107  7.154296875 12.890625  C 5.981987847222223 15.06076388888889  5.395833333333334 17.430555555555554  5.395833333333334 20  C 5.395833333333334 22.569444444444446  5.981987847222223 24.939236111111107  7.154296875 27.109375  C 8.326605902777779 29.279513888888886  9.916449652777779 30.99826388888889  11.923828125 32.265625  C 13.931206597222223 33.532986111111114  16.12326388888889 34.166666666666664  18.5 34.166666666666664  C 20.876736111111114 34.166666666666664  23.06879340277778 33.532986111111114  25.076171875 32.265625  C 27.083550347222225 30.99826388888889  28.673394097222225 29.279513888888886  29.845703125 27.109375  C 31.01801215277778 24.939236111111107  31.604166666666664 22.569444444444446  31.604166666666664 20  C 31.604166666666664 17.430555555555554  31.01801215277778 15.06076388888889  29.845703125 12.890625  C 28.673394097222225 10.720486111111107  27.083550347222225 9.001736111111107  25.076171875 7.734375  Z M 34.518880208333336 9.9609375  C 36.17296006944444 13.025173611111107  37 16.37152777777777  37 20  C 37 23.62847222222222  36.17296006944444 26.974826388888886  34.518880208333336 30.0390625  C 32.86480034722223 33.103298611111114  30.62055121527778 35.529513888888886  27.7861328125 37.317708333333336  C 24.951714409722225 39.10590277777778  21.856336805555557 40  18.5 40  C 15.143663194444446 40  12.048285590277779 39.10590277777778  9.2138671875 37.317708333333336  C 6.379448784722223 35.529513888888886  4.135199652777779 33.103298611111114  2.481119791666667 30.0390625  C 0.8270399305555555 26.974826388888886  0 23.62847222222222  0 20  C 0 16.37152777777777  0.8270399305555555 13.025173611111107  2.481119791666667 9.9609375  C 4.135199652777779 6.896701388888888  6.379448784722223 4.470486111111107  9.2138671875 2.682291666666665  C 12.048285590277779 0.8940972222222188  15.143663194444446 0  18.5 0  C 21.856336805555557 0  24.951714409722225 0.8940972222222188  27.7861328125 2.682291666666665  C 30.62055121527778 4.470486111111107  32.86480034722223 6.896701388888888  34.518880208333336 9.9609375  Z " fill-rule="nonzero" fill="rgba(1, 111, 160, 1)" stroke="none" class="fill" />
    <path d="M 22.860026041666664 15.286458333333336  C 24.064453125 16.588541666666664  24.666666666666664 18.159722222222218  24.666666666666664 20  C 24.666666666666664 21.84027777777778  24.064453125 23.41145833333333  22.860026041666664 24.71354166666667  C 21.655598958333336 26.015625  20.202256944444446 26.66666666666667  18.5 26.66666666666667  C 16.797743055555557 26.66666666666667  15.344401041666668 26.015625  14.139973958333332 24.71354166666667  C 12.935546875 23.41145833333333  12.333333333333332 21.84027777777778  12.333333333333332 20  C 12.333333333333332 18.159722222222218  12.935546875 16.588541666666664  14.139973958333332 15.286458333333336  C 15.344401041666668 13.984375  16.797743055555557 13.333333333333336  18.5 13.333333333333336  C 20.202256944444446 13.333333333333336  21.655598958333336 13.984375  22.860026041666664 15.286458333333336  Z " stroke-width="0" stroke-dasharray="0" stroke="rgba(255, 255, 255, 0)" fill="none" class="stroke" mask="url(#Clip86)" />
    <path d="M 25.076171875 7.734375  C 23.06879340277778 6.467013888888888  20.876736111111114 5.833333333333335  18.5 5.833333333333335  C 16.12326388888889 5.833333333333335  13.931206597222223 6.467013888888888  11.923828125 7.734375  C 9.916449652777779 9.001736111111107  8.326605902777779 10.720486111111107  7.154296875 12.890625  C 5.981987847222223 15.06076388888889  5.395833333333334 17.430555555555554  5.395833333333334 20  C 5.395833333333334 22.569444444444446  5.981987847222223 24.939236111111107  7.154296875 27.109375  C 8.326605902777779 29.279513888888886  9.916449652777779 30.99826388888889  11.923828125 32.265625  C 13.931206597222223 33.532986111111114  16.12326388888889 34.166666666666664  18.5 34.166666666666664  C 20.876736111111114 34.166666666666664  23.06879340277778 33.532986111111114  25.076171875 32.265625  C 27.083550347222225 30.99826388888889  28.673394097222225 29.279513888888886  29.845703125 27.109375  C 31.01801215277778 24.939236111111107  31.604166666666664 22.569444444444446  31.604166666666664 20  C 31.604166666666664 17.430555555555554  31.01801215277778 15.06076388888889  29.845703125 12.890625  C 28.673394097222225 10.720486111111107  27.083550347222225 9.001736111111107  25.076171875 7.734375  Z " stroke-width="0" stroke-dasharray="0" stroke="rgba(255, 255, 255, 0)" fill="none" class="stroke" mask="url(#Clip86)" />
    <path d="M 34.518880208333336 9.9609375  C 36.17296006944444 13.025173611111107  37 16.37152777777777  37 20  C 37 23.62847222222222  36.17296006944444 26.974826388888886  34.518880208333336 30.0390625  C 32.86480034722223 33.103298611111114  30.62055121527778 35.529513888888886  27.7861328125 37.317708333333336  C 24.951714409722225 39.10590277777778  21.856336805555557 40  18.5 40  C 15.143663194444446 40  12.048285590277779 39.10590277777778  9.2138671875 37.317708333333336  C 6.379448784722223 35.529513888888886  4.135199652777779 33.103298611111114  2.481119791666667 30.0390625  C 0.8270399305555555 26.974826388888886  0 23.62847222222222  0 20  C 0 16.37152777777777  0.8270399305555555 13.025173611111107  2.481119791666667 9.9609375  C 4.135199652777779 6.896701388888888  6.379448784722223 4.470486111111107  9.2138671875 2.682291666666665  C 12.048285590277779 0.8940972222222188  15.143663194444446 0  18.5 0  C 21.856336805555557 0  24.951714409722225 0.8940972222222188  27.7861328125 2.682291666666665  C 30.62055121527778 4.470486111111107  32.86480034722223 6.896701388888888  34.518880208333336 9.9609375  Z " stroke-width="0" stroke-dasharray="0" stroke="rgba(255, 255, 255, 0)" fill="none" class="stroke" mask="url(#Clip86)" />
  </g>
</svg>