<?xml version="1.0" encoding="utf-8"?>
<svg version="1.1" xmlns:xlink="http://www.w3.org/1999/xlink" width="47px" height="43px" xmlns="http://www.w3.org/2000/svg">
  <defs>
    <pattern id="BGPattern" patternUnits="userSpaceOnUse" alignment="0 0" imageRepeat="None" />
    <mask fill="white" id="Clip90">
      <path d="M 9.822265625 31.562855113636363  C 9.988374255952381 31.756273674242426  10.071428571428571 31.985321969696965  10.071428571428571 32.25  L 10.071428571428571 34.20454545454545  C 10.071428571428571 34.469223484848484  9.988374255952381 34.69827178030303  9.822265625 34.891690340909086  C 9.656156994047619 35.08510890151515  9.459449404761905 35.18181818181818  9.232142857142858 35.18181818181818  L 7.553571428571429 35.18181818181818  C 7.326264880952382 35.18181818181818  7.129557291666667 35.08510890151515  6.9634486607142865 34.891690340909086  C 6.797340029761905 34.69827178030303  6.7142857142857135 34.469223484848484  6.7142857142857135 34.20454545454545  L 6.7142857142857135 32.25  C 6.7142857142857135 31.985321969696965  6.797340029761905 31.756273674242426  6.9634486607142865 31.562855113636363  C 7.129557291666667 31.3694365530303  7.326264880952382 31.272727272727273  7.553571428571429 31.272727272727273  L 9.232142857142858 31.272727272727273  C 9.459449404761905 31.272727272727273  9.656156994047619 31.3694365530303  9.822265625 31.562855113636363  Z M 9.822265625 23.744673295454547  C 9.988374255952381 23.938091856060602  10.071428571428571 24.167140151515152  10.071428571428571 24.43181818181818  L 10.071428571428571 26.386363636363637  C 10.071428571428571 26.651041666666664  9.988374255952381 26.880089962121207  9.822265625 27.073508522727273  C 9.656156994047619 27.26692708333333  9.459449404761905 27.363636363636363  9.232142857142858 27.363636363636363  L 7.553571428571429 27.363636363636363  C 7.326264880952382 27.363636363636363  7.129557291666667 27.26692708333333  6.9634486607142865 27.073508522727273  C 6.797340029761905 26.880089962121207  6.7142857142857135 26.651041666666664  6.7142857142857135 26.386363636363637  L 6.7142857142857135 24.43181818181818  C 6.7142857142857135 24.167140151515152  6.797340029761905 23.938091856060602  6.9634486607142865 23.744673295454547  C 7.129557291666667 23.55125473484848  7.326264880952382 23.454545454545453  7.553571428571429 23.454545454545453  L 9.232142857142858 23.454545454545453  C 9.459449404761905 23.454545454545453  9.656156994047619 23.55125473484848  9.822265625 23.744673295454547  Z M 9.822265625 15.926491477272727  C 9.988374255952381 16.11991003787879  10.071428571428571 16.34895833333333  10.071428571428571 16.613636363636363  L 10.071428571428571 18.568181818181817  C 10.071428571428571 18.832859848484848  9.988374255952381 19.06190814393939  9.822265625 19.255326704545453  C 9.656156994047619 19.448745265151516  9.459449404761905 19.545454545454547  9.232142857142858 19.545454545454547  L 7.553571428571429 19.545454545454547  C 7.326264880952382 19.545454545454547  7.129557291666667 19.448745265151516  6.9634486607142865 19.255326704545453  C 6.797340029761905 19.06190814393939  6.7142857142857135 18.832859848484848  6.7142857142857135 18.568181818181817  L 6.7142857142857135 16.613636363636363  C 6.7142857142857135 16.34895833333333  6.797340029761905 16.11991003787879  6.9634486607142865 15.926491477272727  C 7.129557291666667 15.733072916666664  7.326264880952382 15.636363636363637  7.553571428571429 15.636363636363637  L 9.232142857142858 15.636363636363637  C 9.459449404761905 15.636363636363637  9.656156994047619 15.733072916666664  9.822265625 15.926491477272727  Z M 40.036551339285715 31.562855113636363  C 40.20265997023809 31.756273674242426  40.285714285714285 31.985321969696965  40.285714285714285 32.25  L 40.285714285714285 34.20454545454545  C 40.285714285714285 34.469223484848484  40.20265997023809 34.69827178030303  40.036551339285715 34.891690340909086  C 39.870442708333336 35.08510890151515  39.67373511904762 35.18181818181818  39.44642857142857 35  L 14.267857142857142 35  C 14.040550595238097 35.18181818181818  13.843843005952383 35.08510890151515  13.677734375 34.891690340909086  C 13.51162574404762 34.69827178030303  13.428571428571427 34.469223484848484  13.428571428571427 34.20454545454545  L 13.428571428571427 32.25  C 13.428571428571427 31.985321969696965  13.51162574404762 31.756273674242426  13.677734375 31.562855113636363  C 13.843843005952383 31.3694365530303  14.040550595238097 31.272727272727273  14.267857142857142 31  L 39.44642857142857 31  C 39.67373511904762 31.272727272727273  39.870442708333336 31.3694365530303  40.036551339285715 31.562855113636363  Z M 40.036551339285715 23.744673295454547  C 40.20265997023809 23.938091856060602  40.285714285714285 24.167140151515152  40.285714285714285 24.43181818181818  L 40.285714285714285 26.386363636363637  C 40.285714285714285 26.651041666666664  40.20265997023809 26.880089962121207  40.036551339285715 27.073508522727273  C 39.870442708333336 27.26692708333333  39.67373511904762 27.363636363636363  39.44642857142857 27  L 14.267857142857142 27  C 14.040550595238097 27.363636363636363  13.843843005952383 27.26692708333333  13.677734375 27.073508522727273  C 13.51162574404762 26.880089962121207  13.428571428571427 26.651041666666664  13.428571428571427 26.386363636363637  L 13.428571428571427 24.43181818181818  C 13.428571428571427 24.167140151515152  13.51162574404762 23.938091856060602  13.677734375 23.744673295454547  C 13.843843005952383 23.55125473484848  14.040550595238097 23.454545454545453  14.267857142857142 23  L 39.44642857142857 23  C 39.67373511904762 23.454545454545453  39.870442708333336 23.55125473484848  40.036551339285715 23.744673295454547  Z M 40.036551339285715 15.926491477272727  C 40.20265997023809 16.11991003787879  40.285714285714285 16.34895833333333  40.285714285714285 16.613636363636363  L 40.285714285714285 18.568181818181817  C 40.285714285714285 18.832859848484848  40.20265997023809 19.06190814393939  40.036551339285715 19.255326704545453  C 39.870442708333336 19.448745265151516  39.67373511904762 19.545454545454547  39.44642857142857 20  L 14.267857142857142 20  C 14.040550595238097 19.545454545454547  13.843843005952383 19.448745265151516  13.677734375 19.255326704545453  C 13.51162574404762 19.06190814393939  13.428571428571427 18.832859848484848  13.428571428571427 18.568181818181817  L 13.428571428571427 16.613636363636363  C 13.428571428571427 16.34895833333333  13.51162574404762 16.11991003787879  13.677734375 15.926491477272727  C 13.843843005952383 15.733072916666664  14.040550595238097 15.636363636363637  14.267857142857142 16  L 39.44642857142857 16  C 39.67373511904762 15.636363636363637  39.870442708333336 15.733072916666664  40.036551339285715 15.926491477272727  Z M 43.39369419642857 38.80078125  C 43.559802827380956 38.607362689393945  43.642857142857146 38.3783143939394  43 38.11363636363636  L 43 12.704545454545453  C 43.642857142857146 12.43986742424242  43.559802827380956 12.210819128787877  43.39369419642857 12.017400568181817  C 43.22758556547619 11.823982007575754  43.030877976190474 11.727272727272727  42.80357142857143 12  L 4.196428571428571 12  C 3.969122023809524 11.727272727272727  3.7724144345238093 11.823982007575754  3.6063058035714284 12.017400568181817  C 3.4401971726190483 12.210819128787877  3.3571428571428568 12.43986742424242  4 12.704545454545453  L 4 38.11363636363636  C 3.3571428571428568 38.3783143939394  3.4401971726190483 38.607362689393945  3.6063058035714284 38.80078125  C 3.7724144345238093 38.994199810606055  3.969122023809524 39.090909090909086  4.196428571428571 39  L 42.80357142857143 39  C 43.030877976190474 39.090909090909086  43.22758556547619 38.994199810606055  43.39369419642857 38.80078125  Z M 45.767299107142854 1.4353693181818161  C 46.589099702380956 2.3922821969696932  47 3.5426136363636367  47 4.886363636363637  L 47 38.11363636363636  C 47 39.45738636363636  46.589099702380956 40.607717803030305  45.767299107142854 41.56463068181819  C 44.94549851190477 42.521543560606055  43.95758928571429 43  42.80357142857143 43  L 4.196428571428571 43  C 3.0424107142857144 43  2.054501488095238 42.521543560606055  1.2327008928571428 41.56463068181819  C 0.4109002976190476 40.607717803030305  0 39.45738636363636  0 38.11363636363636  L 0 4.886363636363637  C 0 3.5426136363636367  0.4109002976190476 2.3922821969696932  1.2327008928571428 1.4353693181818161  C 2.054501488095238 0.4784564393939339  3.0424107142857144 0  4.196428571428571 0  L 42.80357142857143 0  C 43.95758928571429 0  44.94549851190477 0.4784564393939339  45.767299107142854 1.4353693181818161  Z " fill-rule="evenodd" />
    </mask>
  </defs>
  <g transform="matrix(1 0 0 1 -23 -26 )">
    <path d="M 9.822265625 31.562855113636363  C 9.988374255952381 31.756273674242426  10.071428571428571 31.985321969696965  10.071428571428571 32.25  L 10.071428571428571 34.20454545454545  C 10.071428571428571 34.469223484848484  9.988374255952381 34.69827178030303  9.822265625 34.891690340909086  C 9.656156994047619 35.08510890151515  9.459449404761905 35.18181818181818  9.232142857142858 35.18181818181818  L 7.553571428571429 35.18181818181818  C 7.326264880952382 35.18181818181818  7.129557291666667 35.08510890151515  6.9634486607142865 34.891690340909086  C 6.797340029761905 34.69827178030303  6.7142857142857135 34.469223484848484  6.7142857142857135 34.20454545454545  L 6.7142857142857135 32.25  C 6.7142857142857135 31.985321969696965  6.797340029761905 31.756273674242426  6.9634486607142865 31.562855113636363  C 7.129557291666667 31.3694365530303  7.326264880952382 31.272727272727273  7.553571428571429 31.272727272727273  L 9.232142857142858 31.272727272727273  C 9.459449404761905 31.272727272727273  9.656156994047619 31.3694365530303  9.822265625 31.562855113636363  Z M 9.822265625 23.744673295454547  C 9.988374255952381 23.938091856060602  10.071428571428571 24.167140151515152  10.071428571428571 24.43181818181818  L 10.071428571428571 26.386363636363637  C 10.071428571428571 26.651041666666664  9.988374255952381 26.880089962121207  9.822265625 27.073508522727273  C 9.656156994047619 27.26692708333333  9.459449404761905 27.363636363636363  9.232142857142858 27.363636363636363  L 7.553571428571429 27.363636363636363  C 7.326264880952382 27.363636363636363  7.129557291666667 27.26692708333333  6.9634486607142865 27.073508522727273  C 6.797340029761905 26.880089962121207  6.7142857142857135 26.651041666666664  6.7142857142857135 26.386363636363637  L 6.7142857142857135 24.43181818181818  C 6.7142857142857135 24.167140151515152  6.797340029761905 23.938091856060602  6.9634486607142865 23.744673295454547  C 7.129557291666667 23.55125473484848  7.326264880952382 23.454545454545453  7.553571428571429 23.454545454545453  L 9.232142857142858 23.454545454545453  C 9.459449404761905 23.454545454545453  9.656156994047619 23.55125473484848  9.822265625 23.744673295454547  Z M 9.822265625 15.926491477272727  C 9.988374255952381 16.11991003787879  10.071428571428571 16.34895833333333  10.071428571428571 16.613636363636363  L 10.071428571428571 18.568181818181817  C 10.071428571428571 18.832859848484848  9.988374255952381 19.06190814393939  9.822265625 19.255326704545453  C 9.656156994047619 19.448745265151516  9.459449404761905 19.545454545454547  9.232142857142858 19.545454545454547  L 7.553571428571429 19.545454545454547  C 7.326264880952382 19.545454545454547  7.129557291666667 19.448745265151516  6.9634486607142865 19.255326704545453  C 6.797340029761905 19.06190814393939  6.7142857142857135 18.832859848484848  6.7142857142857135 18.568181818181817  L 6.7142857142857135 16.613636363636363  C 6.7142857142857135 16.34895833333333  6.797340029761905 16.11991003787879  6.9634486607142865 15.926491477272727  C 7.129557291666667 15.733072916666664  7.326264880952382 15.636363636363637  7.553571428571429 15.636363636363637  L 9.232142857142858 15.636363636363637  C 9.459449404761905 15.636363636363637  9.656156994047619 15.733072916666664  9.822265625 15.926491477272727  Z M 40.036551339285715 31.562855113636363  C 40.20265997023809 31.756273674242426  40.285714285714285 31.985321969696965  40.285714285714285 32.25  L 40.285714285714285 34.20454545454545  C 40.285714285714285 34.469223484848484  40.20265997023809 34.69827178030303  40.036551339285715 34.891690340909086  C 39.870442708333336 35.08510890151515  39.67373511904762 35.18181818181818  39.44642857142857 35  L 14.267857142857142 35  C 14.040550595238097 35.18181818181818  13.843843005952383 35.08510890151515  13.677734375 34.891690340909086  C 13.51162574404762 34.69827178030303  13.428571428571427 34.469223484848484  13.428571428571427 34.20454545454545  L 13.428571428571427 32.25  C 13.428571428571427 31.985321969696965  13.51162574404762 31.756273674242426  13.677734375 31.562855113636363  C 13.843843005952383 31.3694365530303  14.040550595238097 31.272727272727273  14.267857142857142 31  L 39.44642857142857 31  C 39.67373511904762 31.272727272727273  39.870442708333336 31.3694365530303  40.036551339285715 31.562855113636363  Z M 40.036551339285715 23.744673295454547  C 40.20265997023809 23.938091856060602  40.285714285714285 24.167140151515152  40.285714285714285 24.43181818181818  L 40.285714285714285 26.386363636363637  C 40.285714285714285 26.651041666666664  40.20265997023809 26.880089962121207  40.036551339285715 27.073508522727273  C 39.870442708333336 27.26692708333333  39.67373511904762 27.363636363636363  39.44642857142857 27  L 14.267857142857142 27  C 14.040550595238097 27.363636363636363  13.843843005952383 27.26692708333333  13.677734375 27.073508522727273  C 13.51162574404762 26.880089962121207  13.428571428571427 26.651041666666664  13.428571428571427 26.386363636363637  L 13.428571428571427 24.43181818181818  C 13.428571428571427 24.167140151515152  13.51162574404762 23.938091856060602  13.677734375 23.744673295454547  C 13.843843005952383 23.55125473484848  14.040550595238097 23.454545454545453  14.267857142857142 23  L 39.44642857142857 23  C 39.67373511904762 23.454545454545453  39.870442708333336 23.55125473484848  40.036551339285715 23.744673295454547  Z M 40.036551339285715 15.926491477272727  C 40.20265997023809 16.11991003787879  40.285714285714285 16.34895833333333  40.285714285714285 16.613636363636363  L 40.285714285714285 18.568181818181817  C 40.285714285714285 18.832859848484848  40.20265997023809 19.06190814393939  40.036551339285715 19.255326704545453  C 39.870442708333336 19.448745265151516  39.67373511904762 19.545454545454547  39.44642857142857 20  L 14.267857142857142 20  C 14.040550595238097 19.545454545454547  13.843843005952383 19.448745265151516  13.677734375 19.255326704545453  C 13.51162574404762 19.06190814393939  13.428571428571427 18.832859848484848  13.428571428571427 18.568181818181817  L 13.428571428571427 16.613636363636363  C 13.428571428571427 16.34895833333333  13.51162574404762 16.11991003787879  13.677734375 15.926491477272727  C 13.843843005952383 15.733072916666664  14.040550595238097 15.636363636363637  14.267857142857142 16  L 39.44642857142857 16  C 39.67373511904762 15.636363636363637  39.870442708333336 15.733072916666664  40.036551339285715 15.926491477272727  Z M 43.39369419642857 38.80078125  C 43.559802827380956 38.607362689393945  43.642857142857146 38.3783143939394  43 38.11363636363636  L 43 12.704545454545453  C 43.642857142857146 12.43986742424242  43.559802827380956 12.210819128787877  43.39369419642857 12.017400568181817  C 43.22758556547619 11.823982007575754  43.030877976190474 11.727272727272727  42.80357142857143 12  L 4.196428571428571 12  C 3.969122023809524 11.727272727272727  3.7724144345238093 11.823982007575754  3.6063058035714284 12.017400568181817  C 3.4401971726190483 12.210819128787877  3.3571428571428568 12.43986742424242  4 12.704545454545453  L 4 38.11363636363636  C 3.3571428571428568 38.3783143939394  3.4401971726190483 38.607362689393945  3.6063058035714284 38.80078125  C 3.7724144345238093 38.994199810606055  3.969122023809524 39.090909090909086  4.196428571428571 39  L 42.80357142857143 39  C 43.030877976190474 39.090909090909086  43.22758556547619 38.994199810606055  43.39369419642857 38.80078125  Z M 45.767299107142854 1.4353693181818161  C 46.589099702380956 2.3922821969696932  47 3.5426136363636367  47 4.886363636363637  L 47 38.11363636363636  C 47 39.45738636363636  46.589099702380956 40.607717803030305  45.767299107142854 41.56463068181819  C 44.94549851190477 42.521543560606055  43.95758928571429 43  42.80357142857143 43  L 4.196428571428571 43  C 3.0424107142857144 43  2.054501488095238 42.521543560606055  1.2327008928571428 41.56463068181819  C 0.4109002976190476 40.607717803030305  0 39.45738636363636  0 38.11363636363636  L 0 4.886363636363637  C 0 3.5426136363636367  0.4109002976190476 2.3922821969696932  1.2327008928571428 1.4353693181818161  C 2.054501488095238 0.4784564393939339  3.0424107142857144 0  4.196428571428571 0  L 42.80357142857143 0  C 43.95758928571429 0  44.94549851190477 0.4784564393939339  45.767299107142854 1.4353693181818161  Z " fill-rule="nonzero" fill="rgba(1, 111, 160, 1)" stroke="none" transform="matrix(1 0 0 1 23 26 )" class="fill" />
    <path d="M 9.822265625 31.562855113636363  C 9.988374255952381 31.756273674242426  10.071428571428571 31.985321969696965  10.071428571428571 32.25  L 10.071428571428571 34.20454545454545  C 10.071428571428571 34.469223484848484  9.988374255952381 34.69827178030303  9.822265625 34.891690340909086  C 9.656156994047619 35.08510890151515  9.459449404761905 35.18181818181818  9.232142857142858 35.18181818181818  L 7.553571428571429 35.18181818181818  C 7.326264880952382 35.18181818181818  7.129557291666667 35.08510890151515  6.9634486607142865 34.891690340909086  C 6.797340029761905 34.69827178030303  6.7142857142857135 34.469223484848484  6.7142857142857135 34.20454545454545  L 6.7142857142857135 32.25  C 6.7142857142857135 31.985321969696965  6.797340029761905 31.756273674242426  6.9634486607142865 31.562855113636363  C 7.129557291666667 31.3694365530303  7.326264880952382 31.272727272727273  7.553571428571429 31.272727272727273  L 9.232142857142858 31.272727272727273  C 9.459449404761905 31.272727272727273  9.656156994047619 31.3694365530303  9.822265625 31.562855113636363  Z " stroke-width="0" stroke-dasharray="0" stroke="rgba(121, 121, 121, 0)" fill="none" transform="matrix(1 0 0 1 23 26 )" class="stroke" mask="url(#Clip90)" />
    <path d="M 9.822265625 23.744673295454547  C 9.988374255952381 23.938091856060602  10.071428571428571 24.167140151515152  10.071428571428571 24.43181818181818  L 10.071428571428571 26.386363636363637  C 10.071428571428571 26.651041666666664  9.988374255952381 26.880089962121207  9.822265625 27.073508522727273  C 9.656156994047619 27.26692708333333  9.459449404761905 27.363636363636363  9.232142857142858 27.363636363636363  L 7.553571428571429 27.363636363636363  C 7.326264880952382 27.363636363636363  7.129557291666667 27.26692708333333  6.9634486607142865 27.073508522727273  C 6.797340029761905 26.880089962121207  6.7142857142857135 26.651041666666664  6.7142857142857135 26.386363636363637  L 6.7142857142857135 24.43181818181818  C 6.7142857142857135 24.167140151515152  6.797340029761905 23.938091856060602  6.9634486607142865 23.744673295454547  C 7.129557291666667 23.55125473484848  7.326264880952382 23.454545454545453  7.553571428571429 23.454545454545453  L 9.232142857142858 23.454545454545453  C 9.459449404761905 23.454545454545453  9.656156994047619 23.55125473484848  9.822265625 23.744673295454547  Z " stroke-width="0" stroke-dasharray="0" stroke="rgba(121, 121, 121, 0)" fill="none" transform="matrix(1 0 0 1 23 26 )" class="stroke" mask="url(#Clip90)" />
    <path d="M 9.822265625 15.926491477272727  C 9.988374255952381 16.11991003787879  10.071428571428571 16.34895833333333  10.071428571428571 16.613636363636363  L 10.071428571428571 18.568181818181817  C 10.071428571428571 18.832859848484848  9.988374255952381 19.06190814393939  9.822265625 19.255326704545453  C 9.656156994047619 19.448745265151516  9.459449404761905 19.545454545454547  9.232142857142858 19.545454545454547  L 7.553571428571429 19.545454545454547  C 7.326264880952382 19.545454545454547  7.129557291666667 19.448745265151516  6.9634486607142865 19.255326704545453  C 6.797340029761905 19.06190814393939  6.7142857142857135 18.832859848484848  6.7142857142857135 18.568181818181817  L 6.7142857142857135 16.613636363636363  C 6.7142857142857135 16.34895833333333  6.797340029761905 16.11991003787879  6.9634486607142865 15.926491477272727  C 7.129557291666667 15.733072916666664  7.326264880952382 15.636363636363637  7.553571428571429 15.636363636363637  L 9.232142857142858 15.636363636363637  C 9.459449404761905 15.636363636363637  9.656156994047619 15.733072916666664  9.822265625 15.926491477272727  Z " stroke-width="0" stroke-dasharray="0" stroke="rgba(121, 121, 121, 0)" fill="none" transform="matrix(1 0 0 1 23 26 )" class="stroke" mask="url(#Clip90)" />
    <path d="M 40.036551339285715 31.562855113636363  C 40.20265997023809 31.756273674242426  40.285714285714285 31.985321969696965  40.285714285714285 32.25  L 40.285714285714285 34.20454545454545  C 40.285714285714285 34.469223484848484  40.20265997023809 34.69827178030303  40.036551339285715 34.891690340909086  C 39.870442708333336 35.08510890151515  39.67373511904762 35.18181818181818  39.44642857142857 35  L 14.267857142857142 35  C 14.040550595238097 35.18181818181818  13.843843005952383 35.08510890151515  13.677734375 34.891690340909086  C 13.51162574404762 34.69827178030303  13.428571428571427 34.469223484848484  13.428571428571427 34.20454545454545  L 13.428571428571427 32.25  C 13.428571428571427 31.985321969696965  13.51162574404762 31.756273674242426  13.677734375 31.562855113636363  C 13.843843005952383 31.3694365530303  14.040550595238097 31.272727272727273  14.267857142857142 31  L 39.44642857142857 31  C 39.67373511904762 31.272727272727273  39.870442708333336 31.3694365530303  40.036551339285715 31.562855113636363  Z " stroke-width="0" stroke-dasharray="0" stroke="rgba(121, 121, 121, 0)" fill="none" transform="matrix(1 0 0 1 23 26 )" class="stroke" mask="url(#Clip90)" />
    <path d="M 40.036551339285715 23.744673295454547  C 40.20265997023809 23.938091856060602  40.285714285714285 24.167140151515152  40.285714285714285 24.43181818181818  L 40.285714285714285 26.386363636363637  C 40.285714285714285 26.651041666666664  40.20265997023809 26.880089962121207  40.036551339285715 27.073508522727273  C 39.870442708333336 27.26692708333333  39.67373511904762 27.363636363636363  39.44642857142857 27  L 14.267857142857142 27  C 14.040550595238097 27.363636363636363  13.843843005952383 27.26692708333333  13.677734375 27.073508522727273  C 13.51162574404762 26.880089962121207  13.428571428571427 26.651041666666664  13.428571428571427 26.386363636363637  L 13.428571428571427 24.43181818181818  C 13.428571428571427 24.167140151515152  13.51162574404762 23.938091856060602  13.677734375 23.744673295454547  C 13.843843005952383 23.55125473484848  14.040550595238097 23.454545454545453  14.267857142857142 23  L 39.44642857142857 23  C 39.67373511904762 23.454545454545453  39.870442708333336 23.55125473484848  40.036551339285715 23.744673295454547  Z " stroke-width="0" stroke-dasharray="0" stroke="rgba(121, 121, 121, 0)" fill="none" transform="matrix(1 0 0 1 23 26 )" class="stroke" mask="url(#Clip90)" />
    <path d="M 40.036551339285715 15.926491477272727  C 40.20265997023809 16.11991003787879  40.285714285714285 16.34895833333333  40.285714285714285 16.613636363636363  L 40.285714285714285 18.568181818181817  C 40.285714285714285 18.832859848484848  40.20265997023809 19.06190814393939  40.036551339285715 19.255326704545453  C 39.870442708333336 19.448745265151516  39.67373511904762 19.545454545454547  39.44642857142857 20  L 14.267857142857142 20  C 14.040550595238097 19.545454545454547  13.843843005952383 19.448745265151516  13.677734375 19.255326704545453  C 13.51162574404762 19.06190814393939  13.428571428571427 18.832859848484848  13.428571428571427 18.568181818181817  L 13.428571428571427 16.613636363636363  C 13.428571428571427 16.34895833333333  13.51162574404762 16.11991003787879  13.677734375 15.926491477272727  C 13.843843005952383 15.733072916666664  14.040550595238097 15.636363636363637  14.267857142857142 16  L 39.44642857142857 16  C 39.67373511904762 15.636363636363637  39.870442708333336 15.733072916666664  40.036551339285715 15.926491477272727  Z " stroke-width="0" stroke-dasharray="0" stroke="rgba(121, 121, 121, 0)" fill="none" transform="matrix(1 0 0 1 23 26 )" class="stroke" mask="url(#Clip90)" />
    <path d="M 43.39369419642857 38.80078125  C 43.559802827380956 38.607362689393945  43.642857142857146 38.3783143939394  43 38.11363636363636  L 43 12.704545454545453  C 43.642857142857146 12.43986742424242  43.559802827380956 12.210819128787877  43.39369419642857 12.017400568181817  C 43.22758556547619 11.823982007575754  43.030877976190474 11.727272727272727  42.80357142857143 12  L 4.196428571428571 12  C 3.969122023809524 11.727272727272727  3.7724144345238093 11.823982007575754  3.6063058035714284 12.017400568181817  C 3.4401971726190483 12.210819128787877  3.3571428571428568 12.43986742424242  4 12.704545454545453  L 4 38.11363636363636  C 3.3571428571428568 38.3783143939394  3.4401971726190483 38.607362689393945  3.6063058035714284 38.80078125  C 3.7724144345238093 38.994199810606055  3.969122023809524 39.090909090909086  4.196428571428571 39  L 42.80357142857143 39  C 43.030877976190474 39.090909090909086  43.22758556547619 38.994199810606055  43.39369419642857 38.80078125  Z " stroke-width="0" stroke-dasharray="0" stroke="rgba(121, 121, 121, 0)" fill="none" transform="matrix(1 0 0 1 23 26 )" class="stroke" mask="url(#Clip90)" />
    <path d="M 45.767299107142854 1.4353693181818161  C 46.589099702380956 2.3922821969696932  47 3.5426136363636367  47 4.886363636363637  L 47 38.11363636363636  C 47 39.45738636363636  46.589099702380956 40.607717803030305  45.767299107142854 41.56463068181819  C 44.94549851190477 42.521543560606055  43.95758928571429 43  42.80357142857143 43  L 4.196428571428571 43  C 3.0424107142857144 43  2.054501488095238 42.521543560606055  1.2327008928571428 41.56463068181819  C 0.4109002976190476 40.607717803030305  0 39.45738636363636  0 38.11363636363636  L 0 4.886363636363637  C 0 3.5426136363636367  0.4109002976190476 2.3922821969696932  1.2327008928571428 1.4353693181818161  C 2.054501488095238 0.4784564393939339  3.0424107142857144 0  4.196428571428571 0  L 42.80357142857143 0  C 43.95758928571429 0  44.94549851190477 0.4784564393939339  45.767299107142854 1.4353693181818161  Z " stroke-width="0" stroke-dasharray="0" stroke="rgba(121, 121, 121, 0)" fill="none" transform="matrix(1 0 0 1 23 26 )" class="stroke" mask="url(#Clip90)" />
  </g>
</svg>