<?xml version="1.0" encoding="utf-8"?>
<svg version="1.1" xmlns:xlink="http://www.w3.org/1999/xlink" width="41px" height="50px" xmlns="http://www.w3.org/2000/svg">
  <defs>
    <pattern id="BGPattern" patternUnits="userSpaceOnUse" alignment="0 0" imageRepeat="None" />
    <mask fill="white" id="Clip91">
      <path d="M 30.856770833333332 1.8973214285714302  L 39.18489583333333 10.60267857142857  C 39.68315972222223 11.123511904761902  40.11024305555556 11.830357142857146  40.46614583333333 12.723214285714285  C 40.82204861111111 13.61607142857143  41 14.434523809523808  41 15.17857142857143  L 41 47.32142857142857  C 41 48.06547619047619  40.75086805555555 48.697916666666664  40.25260416666667 49.21875  C 39.754340277777786 49.739583333333336  39.14930555555556 50  38.4375 50  L 2.5625 50  C 1.8506944444444446 50  1.2456597222222223 49.739583333333336  0.7473958333333334 49.21875  C 0.24913194444444442 48.697916666666664  0 48.06547619047619  0 47.32142857142857  L 0 2.67857142857143  C 0 1.9345238095238082  0.24913194444444442 1.3020833333333315  0.7473958333333334 0.78125  C 1.2456597222222223 0.2604166666666685  1.8506944444444446 0  2.5625 0  L 26.479166666666668 0  C 27.190972222222225 0  27.973958333333332 0.18601190476190688  28.828125 0.5580357142857151  C 29.682291666666668 0.9300595238095233  30.358506944444446 1.3764880952380931  30.856770833333332 1.8973214285714302  Z M 28.427734375 4.408482142857145  C 28.214192708333332 4.185267857142855  27.849392361111114 3.980654761904756  27 3.794642857142855  L 27 15  L 37.36979166666667 15  C 37.191840277777786 13.746279761904756  36.99609375 13.364955357142854  36.78255208333333 13.14174107142857  L 28.427734375 4.408482142857145  Z M 4 46  L 37 46  L 37 18  L 26.479166666666668 18  C 25.76736111111111 17.857142857142854  25.16232638888889 17.596726190476186  24.6640625 17.075892857142854  C 24.16579861111111 16.555059523809522  23.916666666666668 15.92261904761904  24 15.17857142857143  L 24 4  L 4 4  L 4 46  Z M 10.25 24.107142857142854  L 10.25 22.32142857142857  C 10.25 22.0610119047619  10.330078125 21.847098214285715  10.490234375 21.6796875  C 10.650390625000002 21.512276785714285  10.855034722222223 21.42857142857143  11.104166666666666 22  L 29.895833333333332 22  C 30.144965277777782 21.42857142857143  30.349609375 21.512276785714285  30.509765625 21.6796875  C 30.669921875 21.847098214285715  30.75 22.0610119047619  30.75 22.32142857142857  L 30.75 24.107142857142854  C 30.75 24.367559523809522  30.669921875 24.581473214285715  30.509765625 24.74888392857143  C 30.349609375 24.916294642857146  30.144965277777782 25  29.895833333333332 25  L 11.104166666666666 25  C 10.855034722222223 25  10.650390625000002 24.916294642857146  10.490234375 24.74888392857143  C 10.330078125 24.581473214285715  10.25 24.367559523809522  10.25 24.107142857142854  Z M 11.104166666666666 28  L 29.895833333333332 28  C 30.144965277777782 28.57142857142857  30.349609375 28.65513392857143  30.509765625 28.82254464285714  C 30.669921875 28.98995535714286  30.75 29.203869047619047  30.75 29.464285714285715  L 30.75 31.25  C 30.75 31.510416666666664  30.669921875 31.72433035714286  30.509765625 31.89174107142857  C 30.349609375 32.059151785714285  30.144965277777782 32.14285714285714  29.895833333333332 32  L 11.104166666666666 32  C 10.855034722222223 32.14285714285714  10.650390625000002 32.059151785714285  10.490234375 31.89174107142857  C 10.330078125 31.72433035714286  10.25 31.510416666666664  10.25 31.25  L 10.25 29.464285714285715  C 10.25 29.203869047619047  10.330078125 28.98995535714286  10.490234375 28.82254464285714  C 10.650390625000002 28.65513392857143  10.855034722222223 28.57142857142857  11.104166666666666 28  Z M 11.104166666666666 35  L 29.895833333333332 35  C 30.144965277777782 35.714285714285715  30.349609375 35.79799107142857  30.509765625 35.965401785714285  C 30.669921875 36.1328125  30.75 36.34672619047619  30.75 36.60714285714286  L 30.75 38.39285714285714  C 30.75 38.65327380952381  30.669921875 38.8671875  30.509765625 39.034598214285715  C 30.349609375 39.20200892857143  30.144965277777782 39.285714285714285  29.895833333333332 39  L 11.104166666666666 39  C 10.855034722222223 39.285714285714285  10.650390625000002 39.20200892857143  10.490234375 39.034598214285715  C 10.330078125 38.8671875  10.25 38.65327380952381  10.25 38.39285714285714  L 10.25 36.60714285714286  C 10.25 36.34672619047619  10.330078125 36.1328125  10.490234375 35.965401785714285  C 10.650390625000002 35.79799107142857  10.855034722222223 35.714285714285715  11.104166666666666 35  Z " fill-rule="evenodd" />
    </mask>
  </defs>
  <g transform="matrix(1 0 0 1 -180 -26 )">
    <path d="M 30.856770833333332 1.8973214285714302  L 39.18489583333333 10.60267857142857  C 39.68315972222223 11.123511904761902  40.11024305555556 11.830357142857146  40.46614583333333 12.723214285714285  C 40.82204861111111 13.61607142857143  41 14.434523809523808  41 15.17857142857143  L 41 47.32142857142857  C 41 48.06547619047619  40.75086805555555 48.697916666666664  40.25260416666667 49.21875  C 39.754340277777786 49.739583333333336  39.14930555555556 50  38.4375 50  L 2.5625 50  C 1.8506944444444446 50  1.2456597222222223 49.739583333333336  0.7473958333333334 49.21875  C 0.24913194444444442 48.697916666666664  0 48.06547619047619  0 47.32142857142857  L 0 2.67857142857143  C 0 1.9345238095238082  0.24913194444444442 1.3020833333333315  0.7473958333333334 0.78125  C 1.2456597222222223 0.2604166666666685  1.8506944444444446 0  2.5625 0  L 26.479166666666668 0  C 27.190972222222225 0  27.973958333333332 0.18601190476190688  28.828125 0.5580357142857151  C 29.682291666666668 0.9300595238095233  30.358506944444446 1.3764880952380931  30.856770833333332 1.8973214285714302  Z M 28.427734375 4.408482142857145  C 28.214192708333332 4.185267857142855  27.849392361111114 3.980654761904756  27 3.794642857142855  L 27 15  L 37.36979166666667 15  C 37.191840277777786 13.746279761904756  36.99609375 13.364955357142854  36.78255208333333 13.14174107142857  L 28.427734375 4.408482142857145  Z M 4 46  L 37 46  L 37 18  L 26.479166666666668 18  C 25.76736111111111 17.857142857142854  25.16232638888889 17.596726190476186  24.6640625 17.075892857142854  C 24.16579861111111 16.555059523809522  23.916666666666668 15.92261904761904  24 15.17857142857143  L 24 4  L 4 4  L 4 46  Z M 10.25 24.107142857142854  L 10.25 22.32142857142857  C 10.25 22.0610119047619  10.330078125 21.847098214285715  10.490234375 21.6796875  C 10.650390625000002 21.512276785714285  10.855034722222223 21.42857142857143  11.104166666666666 22  L 29.895833333333332 22  C 30.144965277777782 21.42857142857143  30.349609375 21.512276785714285  30.509765625 21.6796875  C 30.669921875 21.847098214285715  30.75 22.0610119047619  30.75 22.32142857142857  L 30.75 24.107142857142854  C 30.75 24.367559523809522  30.669921875 24.581473214285715  30.509765625 24.74888392857143  C 30.349609375 24.916294642857146  30.144965277777782 25  29.895833333333332 25  L 11.104166666666666 25  C 10.855034722222223 25  10.650390625000002 24.916294642857146  10.490234375 24.74888392857143  C 10.330078125 24.581473214285715  10.25 24.367559523809522  10.25 24.107142857142854  Z M 11.104166666666666 28  L 29.895833333333332 28  C 30.144965277777782 28.57142857142857  30.349609375 28.65513392857143  30.509765625 28.82254464285714  C 30.669921875 28.98995535714286  30.75 29.203869047619047  30.75 29.464285714285715  L 30.75 31.25  C 30.75 31.510416666666664  30.669921875 31.72433035714286  30.509765625 31.89174107142857  C 30.349609375 32.059151785714285  30.144965277777782 32.14285714285714  29.895833333333332 32  L 11.104166666666666 32  C 10.855034722222223 32.14285714285714  10.650390625000002 32.059151785714285  10.490234375 31.89174107142857  C 10.330078125 31.72433035714286  10.25 31.510416666666664  10.25 31.25  L 10.25 29.464285714285715  C 10.25 29.203869047619047  10.330078125 28.98995535714286  10.490234375 28.82254464285714  C 10.650390625000002 28.65513392857143  10.855034722222223 28.57142857142857  11.104166666666666 28  Z M 11.104166666666666 35  L 29.895833333333332 35  C 30.144965277777782 35.714285714285715  30.349609375 35.79799107142857  30.509765625 35.965401785714285  C 30.669921875 36.1328125  30.75 36.34672619047619  30.75 36.60714285714286  L 30.75 38.39285714285714  C 30.75 38.65327380952381  30.669921875 38.8671875  30.509765625 39.034598214285715  C 30.349609375 39.20200892857143  30.144965277777782 39.285714285714285  29.895833333333332 39  L 11.104166666666666 39  C 10.855034722222223 39.285714285714285  10.650390625000002 39.20200892857143  10.490234375 39.034598214285715  C 10.330078125 38.8671875  10.25 38.65327380952381  10.25 38.39285714285714  L 10.25 36.60714285714286  C 10.25 36.34672619047619  10.330078125 36.1328125  10.490234375 35.965401785714285  C 10.650390625000002 35.79799107142857  10.855034722222223 35.714285714285715  11.104166666666666 35  Z " fill-rule="nonzero" fill="rgba(1, 111, 160, 1)" stroke="none" transform="matrix(1 0 0 1 180 26 )" class="fill" />
    <path d="M 30.856770833333332 1.8973214285714302  L 39.18489583333333 10.60267857142857  C 39.68315972222223 11.123511904761902  40.11024305555556 11.830357142857146  40.46614583333333 12.723214285714285  C 40.82204861111111 13.61607142857143  41 14.434523809523808  41 15.17857142857143  L 41 47.32142857142857  C 41 48.06547619047619  40.75086805555555 48.697916666666664  40.25260416666667 49.21875  C 39.754340277777786 49.739583333333336  39.14930555555556 50  38.4375 50  L 2.5625 50  C 1.8506944444444446 50  1.2456597222222223 49.739583333333336  0.7473958333333334 49.21875  C 0.24913194444444442 48.697916666666664  0 48.06547619047619  0 47.32142857142857  L 0 2.67857142857143  C 0 1.9345238095238082  0.24913194444444442 1.3020833333333315  0.7473958333333334 0.78125  C 1.2456597222222223 0.2604166666666685  1.8506944444444446 0  2.5625 0  L 26.479166666666668 0  C 27.190972222222225 0  27.973958333333332 0.18601190476190688  28.828125 0.5580357142857151  C 29.682291666666668 0.9300595238095233  30.358506944444446 1.3764880952380931  30.856770833333332 1.8973214285714302  Z " stroke-width="0" stroke-dasharray="0" stroke="rgba(121, 121, 121, 0)" fill="none" transform="matrix(1 0 0 1 180 26 )" class="stroke" mask="url(#Clip91)" />
    <path d="M 28.427734375 4.408482142857145  C 28.214192708333332 4.185267857142855  27.849392361111114 3.980654761904756  27 3.794642857142855  L 27 15  L 37.36979166666667 15  C 37.191840277777786 13.746279761904756  36.99609375 13.364955357142854  36.78255208333333 13.14174107142857  L 28.427734375 4.408482142857145  Z " stroke-width="0" stroke-dasharray="0" stroke="rgba(121, 121, 121, 0)" fill="none" transform="matrix(1 0 0 1 180 26 )" class="stroke" mask="url(#Clip91)" />
    <path d="M 4 46  L 37 46  L 37 18  L 26.479166666666668 18  C 25.76736111111111 17.857142857142854  25.16232638888889 17.596726190476186  24.6640625 17.075892857142854  C 24.16579861111111 16.555059523809522  23.916666666666668 15.92261904761904  24 15.17857142857143  L 24 4  L 4 4  L 4 46  Z " stroke-width="0" stroke-dasharray="0" stroke="rgba(121, 121, 121, 0)" fill="none" transform="matrix(1 0 0 1 180 26 )" class="stroke" mask="url(#Clip91)" />
    <path d="M 10.25 24.107142857142854  L 10.25 22.32142857142857  C 10.25 22.0610119047619  10.330078125 21.847098214285715  10.490234375 21.6796875  C 10.650390625000002 21.512276785714285  10.855034722222223 21.42857142857143  11.104166666666666 22  L 29.895833333333332 22  C 30.144965277777782 21.42857142857143  30.349609375 21.512276785714285  30.509765625 21.6796875  C 30.669921875 21.847098214285715  30.75 22.0610119047619  30.75 22.32142857142857  L 30.75 24.107142857142854  C 30.75 24.367559523809522  30.669921875 24.581473214285715  30.509765625 24.74888392857143  C 30.349609375 24.916294642857146  30.144965277777782 25  29.895833333333332 25  L 11.104166666666666 25  C 10.855034722222223 25  10.650390625000002 24.916294642857146  10.490234375 24.74888392857143  C 10.330078125 24.581473214285715  10.25 24.367559523809522  10.25 24.107142857142854  Z " stroke-width="0" stroke-dasharray="0" stroke="rgba(121, 121, 121, 0)" fill="none" transform="matrix(1 0 0 1 180 26 )" class="stroke" mask="url(#Clip91)" />
    <path d="M 11.104166666666666 28  L 29.895833333333332 28  C 30.144965277777782 28.57142857142857  30.349609375 28.65513392857143  30.509765625 28.82254464285714  C 30.669921875 28.98995535714286  30.75 29.203869047619047  30.75 29.464285714285715  L 30.75 31.25  C 30.75 31.510416666666664  30.669921875 31.72433035714286  30.509765625 31.89174107142857  C 30.349609375 32.059151785714285  30.144965277777782 32.14285714285714  29.895833333333332 32  L 11.104166666666666 32  C 10.855034722222223 32.14285714285714  10.650390625000002 32.059151785714285  10.490234375 31.89174107142857  C 10.330078125 31.72433035714286  10.25 31.510416666666664  10.25 31.25  L 10.25 29.464285714285715  C 10.25 29.203869047619047  10.330078125 28.98995535714286  10.490234375 28.82254464285714  C 10.650390625000002 28.65513392857143  10.855034722222223 28.57142857142857  11.104166666666666 28  Z " stroke-width="0" stroke-dasharray="0" stroke="rgba(121, 121, 121, 0)" fill="none" transform="matrix(1 0 0 1 180 26 )" class="stroke" mask="url(#Clip91)" />
    <path d="M 11.104166666666666 35  L 29.895833333333332 35  C 30.144965277777782 35.714285714285715  30.349609375 35.79799107142857  30.509765625 35.965401785714285  C 30.669921875 36.1328125  30.75 36.34672619047619  30.75 36.60714285714286  L 30.75 38.39285714285714  C 30.75 38.65327380952381  30.669921875 38.8671875  30.509765625 39.034598214285715  C 30.349609375 39.20200892857143  30.144965277777782 39.285714285714285  29.895833333333332 39  L 11.104166666666666 39  C 10.855034722222223 39.285714285714285  10.650390625000002 39.20200892857143  10.490234375 39.034598214285715  C 10.330078125 38.8671875  10.25 38.65327380952381  10.25 38.39285714285714  L 10.25 36.60714285714286  C 10.25 36.34672619047619  10.330078125 36.1328125  10.490234375 35.965401785714285  C 10.650390625000002 35.79799107142857  10.855034722222223 35.714285714285715  11.104166666666666 35  Z " stroke-width="0" stroke-dasharray="0" stroke="rgba(121, 121, 121, 0)" fill="none" transform="matrix(1 0 0 1 180 26 )" class="stroke" mask="url(#Clip91)" />
  </g>
</svg>