<?xml version="1.0" encoding="utf-8"?>
<svg version="1.1" xmlns:xlink="http://www.w3.org/1999/xlink" width="41px" height="50px" xmlns="http://www.w3.org/2000/svg">
  <defs>
    <pattern id="BGPattern" patternUnits="userSpaceOnUse" alignment="0 0" imageRepeat="None" />
    <mask fill="white" id="Clip468">
      <path d="M 34.16666666666667 14.285714285714285  C 34.16666666666667 17.020089285714285  33.46375868055556 19.549851190476186  32.05794270833333 21.875  C 32.894314236111114 22.135416666666664  33.69064670138889 22.488839285714285  34.44694010416667 22.935267857142854  C 35.20323350694445 23.38169642857143  35.9951171875 24.06063988095238  36.82259114583333 24.972098214285715  C 37.65006510416667 25.883556547619047  38.357421875 26.957775297619047  38.94466145833333 28.194754464285715  C 39.53190104166667 29.43173363095238  40.021267361111114 31.031436011904756  40.41276041666667 32.99386160714286  C 40.804253472222214 34.956287202380956  41 37.155877976190474  41 39.59263392857143  C 41 42.457217261904766  40.11024305555555 44.907924107142854  38.33072916666667 46.944754464285715  C 36.551215277777786 48.98158482142857  34.40690104166667 50  31.897786458333332 50  L 9.102213541666668 50  C 6.593098958333333 50  4.448784722222223 48.98158482142857  2.6692708333333335 46.944754464285715  C 0.8897569444444443 44.907924107142854  0 42.457217261904766  0 39.59263392857143  C 0 37.155877976190474  0.19574652777777776 34.956287202380956  0.5872395833333333 32.99386160714286  C 0.978732638888889 31.031436011904756  1.4680989583333333 29.43173363095238  2.055338541666667 28.194754464285715  C 2.642578125 26.957775297619047  3.3499348958333335 25.883556547619047  4.177408854166666 24.972098214285715  C 5.0048828125 24.06063988095238  5.796766493055556 23.38169642857143  6.553059895833333 22.935267857142854  C 7.309353298611112 22.488839285714285  8.10568576388889 22.135416666666664  8.942057291666668 21.875  C 7.5362413194444455 19.549851190476186  6.833333333333333 17.020089285714285  6.833333333333333 14.285714285714285  C 6.833333333333333 12.351190476190471  7.193684895833333 10.50502232142857  7.914388020833333 8.74720982142857  C 8.635091145833332 6.989397321428569  9.609375 5.46875  10.837239583333334 4.185267857142855  C 12.065104166666666 2.9017857142857153  13.519856770833334 1.883370535714285  15.201497395833334 1.1300223214285698  C 16.883138020833336 0.37667410714285476  18.649305555555557 0  20.5 0  C 22.350694444444446 0  24.116861979166668 0.37667410714285476  25.798502604166668 1.1300223214285698  C 27.480143229166668 1.883370535714285  28.934895833333332 2.9017857142857153  30.162760416666668 4.185267857142855  C 31.390625 5.46875  32.36490885416667 6.989397321428569  33.08561197916667 8.74720982142857  C 33.80631510416667 10.50502232142857  34.16666666666667 12.351190476190471  34.16666666666667 14.285714285714285  Z M 27.7470703125 6.710379464285715  C 25.745117187500004 4.617745535714285  23.329427083333336 3.57142857142857  20.5 3.57142857142857  C 17.670572916666664 3.57142857142857  15.2548828125 4.617745535714285  13.2529296875 6.710379464285715  C 11.2509765625 8.803013392857146  10.25 11.328125  10.25 14.285714285714285  C 10.25 17.24330357142857  11.2509765625 19.76841517857143  13.2529296875 21.861049107142854  C 15.2548828125 23.953683035714285  17.670572916666664 25  20.5 25  C 23.329427083333336 25  25.745117187500004 23.953683035714285  27.7470703125 21.861049107142854  C 29.7490234375 19.76841517857143  30.75 17.24330357142857  30.75 14.285714285714285  C 30.75 11.328125  29.7490234375 8.803013392857146  27.7470703125 6.710379464285715  Z M 9.102213541666668 46  L 31.897786458333332 46  C 33.46375868055556 46.42857142857143  34.80284288194445 45.76357886904762  35.9150390625 44.43359375  C 37.02723524305556 43.10360863095238  37.58333333333333 41.48995535714286  37.58333333333333 39.59263392857143  C 37.58333333333333 35.1469494047619  36.88487413194445 31.640625  35.48795572916667 29.073660714285715  C 34.09103732638889 26.50669642857143  32.08463541666667 25.158110119047617  29.46875 25.027901785714285  C 26.88845486111111 27.390252976190478  23.89887152777778 28.57142857142857  20.5 28.57142857142857  C 17.101128472222225 28.57142857142857  14.111545138888891 27.390252976190478  11.53125 25.027901785714285  C 8.915364583333332 25.158110119047617  6.908962673611112 26.50669642857143  5.512044270833333 29.073660714285715  C 4.115125868055556 31.640625  3.4166666666666665 35.1469494047619  3.4166666666666665 39.59263392857143  C 3.4166666666666665 41.48995535714286  3.9727647569444446 43.10360863095238  5.0849609375 44.43359375  C 6.197157118055556 45.76357886904762  7.5362413194444455 46.42857142857143  9.102213541666668 46  Z " fill-rule="evenodd" />
    </mask>
  </defs>
  <g transform="matrix(1 0 0 1 -329 -26 )">
    <path d="M 34.16666666666667 14.285714285714285  C 34.16666666666667 17.020089285714285  33.46375868055556 19.549851190476186  32.05794270833333 21.875  C 32.894314236111114 22.135416666666664  33.69064670138889 22.488839285714285  34.44694010416667 22.935267857142854  C 35.20323350694445 23.38169642857143  35.9951171875 24.06063988095238  36.82259114583333 24.972098214285715  C 37.65006510416667 25.883556547619047  38.357421875 26.957775297619047  38.94466145833333 28.194754464285715  C 39.53190104166667 29.43173363095238  40.021267361111114 31.031436011904756  40.41276041666667 32.99386160714286  C 40.804253472222214 34.956287202380956  41 37.155877976190474  41 39.59263392857143  C 41 42.457217261904766  40.11024305555555 44.907924107142854  38.33072916666667 46.944754464285715  C 36.551215277777786 48.98158482142857  34.40690104166667 50  31.897786458333332 50  L 9.102213541666668 50  C 6.593098958333333 50  4.448784722222223 48.98158482142857  2.6692708333333335 46.944754464285715  C 0.8897569444444443 44.907924107142854  0 42.457217261904766  0 39.59263392857143  C 0 37.155877976190474  0.19574652777777776 34.956287202380956  0.5872395833333333 32.99386160714286  C 0.978732638888889 31.031436011904756  1.4680989583333333 29.43173363095238  2.055338541666667 28.194754464285715  C 2.642578125 26.957775297619047  3.3499348958333335 25.883556547619047  4.177408854166666 24.972098214285715  C 5.0048828125 24.06063988095238  5.796766493055556 23.38169642857143  6.553059895833333 22.935267857142854  C 7.309353298611112 22.488839285714285  8.10568576388889 22.135416666666664  8.942057291666668 21.875  C 7.5362413194444455 19.549851190476186  6.833333333333333 17.020089285714285  6.833333333333333 14.285714285714285  C 6.833333333333333 12.351190476190471  7.193684895833333 10.50502232142857  7.914388020833333 8.74720982142857  C 8.635091145833332 6.989397321428569  9.609375 5.46875  10.837239583333334 4.185267857142855  C 12.065104166666666 2.9017857142857153  13.519856770833334 1.883370535714285  15.201497395833334 1.1300223214285698  C 16.883138020833336 0.37667410714285476  18.649305555555557 0  20.5 0  C 22.350694444444446 0  24.116861979166668 0.37667410714285476  25.798502604166668 1.1300223214285698  C 27.480143229166668 1.883370535714285  28.934895833333332 2.9017857142857153  30.162760416666668 4.185267857142855  C 31.390625 5.46875  32.36490885416667 6.989397321428569  33.08561197916667 8.74720982142857  C 33.80631510416667 10.50502232142857  34.16666666666667 12.351190476190471  34.16666666666667 14.285714285714285  Z M 27.7470703125 6.710379464285715  C 25.745117187500004 4.617745535714285  23.329427083333336 3.57142857142857  20.5 3.57142857142857  C 17.670572916666664 3.57142857142857  15.2548828125 4.617745535714285  13.2529296875 6.710379464285715  C 11.2509765625 8.803013392857146  10.25 11.328125  10.25 14.285714285714285  C 10.25 17.24330357142857  11.2509765625 19.76841517857143  13.2529296875 21.861049107142854  C 15.2548828125 23.953683035714285  17.670572916666664 25  20.5 25  C 23.329427083333336 25  25.745117187500004 23.953683035714285  27.7470703125 21.861049107142854  C 29.7490234375 19.76841517857143  30.75 17.24330357142857  30.75 14.285714285714285  C 30.75 11.328125  29.7490234375 8.803013392857146  27.7470703125 6.710379464285715  Z M 9.102213541666668 46  L 31.897786458333332 46  C 33.46375868055556 46.42857142857143  34.80284288194445 45.76357886904762  35.9150390625 44.43359375  C 37.02723524305556 43.10360863095238  37.58333333333333 41.48995535714286  37.58333333333333 39.59263392857143  C 37.58333333333333 35.1469494047619  36.88487413194445 31.640625  35.48795572916667 29.073660714285715  C 34.09103732638889 26.50669642857143  32.08463541666667 25.158110119047617  29.46875 25.027901785714285  C 26.88845486111111 27.390252976190478  23.89887152777778 28.57142857142857  20.5 28.57142857142857  C 17.101128472222225 28.57142857142857  14.111545138888891 27.390252976190478  11.53125 25.027901785714285  C 8.915364583333332 25.158110119047617  6.908962673611112 26.50669642857143  5.512044270833333 29.073660714285715  C 4.115125868055556 31.640625  3.4166666666666665 35.1469494047619  3.4166666666666665 39.59263392857143  C 3.4166666666666665 41.48995535714286  3.9727647569444446 43.10360863095238  5.0849609375 44.43359375  C 6.197157118055556 45.76357886904762  7.5362413194444455 46.42857142857143  9.102213541666668 46  Z " fill-rule="nonzero" fill="rgba(1, 111, 160, 1)" stroke="none" transform="matrix(1 0 0 1 329 26 )" class="fill" />
    <path d="M 34.16666666666667 14.285714285714285  C 34.16666666666667 17.020089285714285  33.46375868055556 19.549851190476186  32.05794270833333 21.875  C 32.894314236111114 22.135416666666664  33.69064670138889 22.488839285714285  34.44694010416667 22.935267857142854  C 35.20323350694445 23.38169642857143  35.9951171875 24.06063988095238  36.82259114583333 24.972098214285715  C 37.65006510416667 25.883556547619047  38.357421875 26.957775297619047  38.94466145833333 28.194754464285715  C 39.53190104166667 29.43173363095238  40.021267361111114 31.031436011904756  40.41276041666667 32.99386160714286  C 40.804253472222214 34.956287202380956  41 37.155877976190474  41 39.59263392857143  C 41 42.457217261904766  40.11024305555555 44.907924107142854  38.33072916666667 46.944754464285715  C 36.551215277777786 48.98158482142857  34.40690104166667 50  31.897786458333332 50  L 9.102213541666668 50  C 6.593098958333333 50  4.448784722222223 48.98158482142857  2.6692708333333335 46.944754464285715  C 0.8897569444444443 44.907924107142854  0 42.457217261904766  0 39.59263392857143  C 0 37.155877976190474  0.19574652777777776 34.956287202380956  0.5872395833333333 32.99386160714286  C 0.978732638888889 31.031436011904756  1.4680989583333333 29.43173363095238  2.055338541666667 28.194754464285715  C 2.642578125 26.957775297619047  3.3499348958333335 25.883556547619047  4.177408854166666 24.972098214285715  C 5.0048828125 24.06063988095238  5.796766493055556 23.38169642857143  6.553059895833333 22.935267857142854  C 7.309353298611112 22.488839285714285  8.10568576388889 22.135416666666664  8.942057291666668 21.875  C 7.5362413194444455 19.549851190476186  6.833333333333333 17.020089285714285  6.833333333333333 14.285714285714285  C 6.833333333333333 12.351190476190471  7.193684895833333 10.50502232142857  7.914388020833333 8.74720982142857  C 8.635091145833332 6.989397321428569  9.609375 5.46875  10.837239583333334 4.185267857142855  C 12.065104166666666 2.9017857142857153  13.519856770833334 1.883370535714285  15.201497395833334 1.1300223214285698  C 16.883138020833336 0.37667410714285476  18.649305555555557 0  20.5 0  C 22.350694444444446 0  24.116861979166668 0.37667410714285476  25.798502604166668 1.1300223214285698  C 27.480143229166668 1.883370535714285  28.934895833333332 2.9017857142857153  30.162760416666668 4.185267857142855  C 31.390625 5.46875  32.36490885416667 6.989397321428569  33.08561197916667 8.74720982142857  C 33.80631510416667 10.50502232142857  34.16666666666667 12.351190476190471  34.16666666666667 14.285714285714285  Z " stroke-width="0" stroke-dasharray="0" stroke="rgba(121, 121, 121, 0)" fill="none" transform="matrix(1 0 0 1 329 26 )" class="stroke" mask="url(#Clip468)" />
    <path d="M 27.7470703125 6.710379464285715  C 25.745117187500004 4.617745535714285  23.329427083333336 3.57142857142857  20.5 3.57142857142857  C 17.670572916666664 3.57142857142857  15.2548828125 4.617745535714285  13.2529296875 6.710379464285715  C 11.2509765625 8.803013392857146  10.25 11.328125  10.25 14.285714285714285  C 10.25 17.24330357142857  11.2509765625 19.76841517857143  13.2529296875 21.861049107142854  C 15.2548828125 23.953683035714285  17.670572916666664 25  20.5 25  C 23.329427083333336 25  25.745117187500004 23.953683035714285  27.7470703125 21.861049107142854  C 29.7490234375 19.76841517857143  30.75 17.24330357142857  30.75 14.285714285714285  C 30.75 11.328125  29.7490234375 8.803013392857146  27.7470703125 6.710379464285715  Z " stroke-width="0" stroke-dasharray="0" stroke="rgba(121, 121, 121, 0)" fill="none" transform="matrix(1 0 0 1 329 26 )" class="stroke" mask="url(#Clip468)" />
    <path d="M 9.102213541666668 46  L 31.897786458333332 46  C 33.46375868055556 46.42857142857143  34.80284288194445 45.76357886904762  35.9150390625 44.43359375  C 37.02723524305556 43.10360863095238  37.58333333333333 41.48995535714286  37.58333333333333 39.59263392857143  C 37.58333333333333 35.1469494047619  36.88487413194445 31.640625  35.48795572916667 29.073660714285715  C 34.09103732638889 26.50669642857143  32.08463541666667 25.158110119047617  29.46875 25.027901785714285  C 26.88845486111111 27.390252976190478  23.89887152777778 28.57142857142857  20.5 28.57142857142857  C 17.101128472222225 28.57142857142857  14.111545138888891 27.390252976190478  11.53125 25.027901785714285  C 8.915364583333332 25.158110119047617  6.908962673611112 26.50669642857143  5.512044270833333 29.073660714285715  C 4.115125868055556 31.640625  3.4166666666666665 35.1469494047619  3.4166666666666665 39.59263392857143  C 3.4166666666666665 41.48995535714286  3.9727647569444446 43.10360863095238  5.0849609375 44.43359375  C 6.197157118055556 45.76357886904762  7.5362413194444455 46.42857142857143  9.102213541666668 46  Z " stroke-width="0" stroke-dasharray="0" stroke="rgba(121, 121, 121, 0)" fill="none" transform="matrix(1 0 0 1 329 26 )" class="stroke" mask="url(#Clip468)" />
  </g>
</svg>