<?xml version="1.0" encoding="utf-8"?>
<svg version="1.1" xmlns:xlink="http://www.w3.org/1999/xlink" width="30px" height="30px" xmlns="http://www.w3.org/2000/svg">
  <defs>
    <pattern id="BGPattern" patternUnits="userSpaceOnUse" alignment="0 0" imageRepeat="None" />
    <mask fill="white" id="Clip57">
      <path d="M 5.069306930693069 27.465346534653467  L 7.188118811881187 27.465346534653467  L 8.990099009900991 25.66336633663366  L 4.336633663366336 21.00990099009901  L 2.5346534653465347 22.81188118811881  L 2.5346534653465347 24.93069306930693  L 5.069306930693069 24.93069306930693  L 5.069306930693069 27.465346534653467  Z M 17.405940594059405 9.425742574257425  C 17.4983498349835 9.333333333333334  17.544554455445546 9.22112211221122  17.544554455445546 9.08910891089109  C 17.544554455445546 8.798679867986799  17.3993399339934 8.653465346534652  17.108910891089106 8.653465346534652  C 16.97689768976898 8.653465346534652  16.864686468646866 8.699669966996698  16.77227722772277 8.792079207920793  L 6.03960396039604 19.524752475247528  C 5.947194719471947 19.617161716171616  5.900990099009901 19.729372937293725  5.900990099009901 19.86138613861386  C 5.900990099009901 20.151815181518145  6.046204620462047 20.2970297029703  6.336633663366337 20.2970297029703  C 6.46864686468647 20.2970297029703  6.580858085808582 20.25082508250825  6.673267326732673 20.15841584158416  L 17.405940594059405 9.425742574257425  Z M 0 21.762376237623762  L 16.475247524752476 5.287128712871288  L 24.71287128712871 13.524752475247524  L 8.237623762376238 30  L 0 30  L 0 21.762376237623762  Z M 29.26732673267327 5.386138613861386  C 29.755775577557756 5.900990099009902  30 6.5016501650165015  30 7.188118811881187  C 30 7.887788778877888  29.755775577557756 8.481848184818478  29.26732673267327 8.970297029702971  L 25.98019801980198 12.257425742574258  L 17.742574257425744 4.019801980198022  L 21.029702970297027 0.7524752475247509  C 21.504950495049503 0.2508250825082481  22.099009900990097 0  22.81188118811881 0  C 23.511551155115516 0  24.112211221122116 0.2508250825082481  24.613861386138616 0.7524752475247509  L 29.26732673267327 5.386138613861386  Z " fill-rule="evenodd" />
    </mask>
  </defs>
  <g transform="matrix(1 0 0 1 -10 -15 )">
    <path d="M 5.069306930693069 27.465346534653467  L 7.188118811881187 27.465346534653467  L 8.990099009900991 25.66336633663366  L 4.336633663366336 21.00990099009901  L 2.5346534653465347 22.81188118811881  L 2.5346534653465347 24.93069306930693  L 5.069306930693069 24.93069306930693  L 5.069306930693069 27.465346534653467  Z M 17.405940594059405 9.425742574257425  C 17.4983498349835 9.333333333333334  17.544554455445546 9.22112211221122  17.544554455445546 9.08910891089109  C 17.544554455445546 8.798679867986799  17.3993399339934 8.653465346534652  17.108910891089106 8.653465346534652  C 16.97689768976898 8.653465346534652  16.864686468646866 8.699669966996698  16.77227722772277 8.792079207920793  L 6.03960396039604 19.524752475247528  C 5.947194719471947 19.617161716171616  5.900990099009901 19.729372937293725  5.900990099009901 19.86138613861386  C 5.900990099009901 20.151815181518145  6.046204620462047 20.2970297029703  6.336633663366337 20.2970297029703  C 6.46864686468647 20.2970297029703  6.580858085808582 20.25082508250825  6.673267326732673 20.15841584158416  L 17.405940594059405 9.425742574257425  Z M 0 21.762376237623762  L 16.475247524752476 5.287128712871288  L 24.71287128712871 13.524752475247524  L 8.237623762376238 30  L 0 30  L 0 21.762376237623762  Z M 29.26732673267327 5.386138613861386  C 29.755775577557756 5.900990099009902  30 6.5016501650165015  30 7.188118811881187  C 30 7.887788778877888  29.755775577557756 8.481848184818478  29.26732673267327 8.970297029702971  L 25.98019801980198 12.257425742574258  L 17.742574257425744 4.019801980198022  L 21.029702970297027 0.7524752475247509  C 21.504950495049503 0.2508250825082481  22.099009900990097 0  22.81188118811881 0  C 23.511551155115516 0  24.112211221122116 0.2508250825082481  24.613861386138616 0.7524752475247509  L 29.26732673267327 5.386138613861386  Z " fill-rule="nonzero" fill="rgba(129, 211, 248, 1)" stroke="none" transform="matrix(1 0 0 1 10 15 )" class="fill" />
    <path d="M 5.069306930693069 27.465346534653467  L 7.188118811881187 27.465346534653467  L 8.990099009900991 25.66336633663366  L 4.336633663366336 21.00990099009901  L 2.5346534653465347 22.81188118811881  L 2.5346534653465347 24.93069306930693  L 5.069306930693069 24.93069306930693  L 5.069306930693069 27.465346534653467  Z " stroke-width="0" stroke-dasharray="0" stroke="rgba(121, 121, 121, 0)" fill="none" transform="matrix(1 0 0 1 10 15 )" class="stroke" mask="url(#Clip57)" />
    <path d="M 17.405940594059405 9.425742574257425  C 17.4983498349835 9.333333333333334  17.544554455445546 9.22112211221122  17.544554455445546 9.08910891089109  C 17.544554455445546 8.798679867986799  17.3993399339934 8.653465346534652  17.108910891089106 8.653465346534652  C 16.97689768976898 8.653465346534652  16.864686468646866 8.699669966996698  16.77227722772277 8.792079207920793  L 6.03960396039604 19.524752475247528  C 5.947194719471947 19.617161716171616  5.900990099009901 19.729372937293725  5.900990099009901 19.86138613861386  C 5.900990099009901 20.151815181518145  6.046204620462047 20.2970297029703  6.336633663366337 20.2970297029703  C 6.46864686468647 20.2970297029703  6.580858085808582 20.25082508250825  6.673267326732673 20.15841584158416  L 17.405940594059405 9.425742574257425  Z " stroke-width="0" stroke-dasharray="0" stroke="rgba(121, 121, 121, 0)" fill="none" transform="matrix(1 0 0 1 10 15 )" class="stroke" mask="url(#Clip57)" />
    <path d="M 0 21.762376237623762  L 16.475247524752476 5.287128712871288  L 24.71287128712871 13.524752475247524  L 8.237623762376238 30  L 0 30  L 0 21.762376237623762  Z " stroke-width="0" stroke-dasharray="0" stroke="rgba(121, 121, 121, 0)" fill="none" transform="matrix(1 0 0 1 10 15 )" class="stroke" mask="url(#Clip57)" />
    <path d="M 29.26732673267327 5.386138613861386  C 29.755775577557756 5.900990099009902  30 6.5016501650165015  30 7.188118811881187  C 30 7.887788778877888  29.755775577557756 8.481848184818478  29.26732673267327 8.970297029702971  L 25.98019801980198 12.257425742574258  L 17.742574257425744 4.019801980198022  L 21.029702970297027 0.7524752475247509  C 21.504950495049503 0.2508250825082481  22.099009900990097 0  22.81188118811881 0  C 23.511551155115516 0  24.112211221122116 0.2508250825082481  24.613861386138616 0.7524752475247509  L 29.26732673267327 5.386138613861386  Z " stroke-width="0" stroke-dasharray="0" stroke="rgba(121, 121, 121, 0)" fill="none" transform="matrix(1 0 0 1 10 15 )" class="stroke" mask="url(#Clip57)" />
  </g>
</svg>